<svg xmlns="http://www.w3.org/2000/svg" viewBox="0 0 403.83571 342.64487"><defs><style>.cls-1,.cls-9{fill:#20c55e;}.cls-2,.cls-4,.cls-6{fill:#fff;}.cls-2{opacity:0.7;}.cls-3,.cls-8{fill:#263238;}.cls-4,.cls-5,.cls-7,.cls-8,.cls-9{stroke:#263238;}.cls-10,.cls-4,.cls-5,.cls-7,.cls-8,.cls-9{stroke-linecap:round;stroke-linejoin:round;}.cls-10,.cls-5,.cls-7{fill:none;}.cls-5{stroke-width:0.72px;}.cls-10{stroke:#787878;}</style></defs><g id="Background_Simple" data-name="Background Simple"><path class="cls-1" d="M126.0484,399.2542s44.4985,26.6329,98.50489,4.6158c54.0065-22.0169,73.971-69.7813,103.4129-104.7916,15.4182-18.3343,39.4065-27.6277,58.1814-42.6959,60.0321-48.1812,44.6709-135.6844-5.9999-162.4849-43.8659-23.2014-96.4034-18.9885-163.0393,11.8329-66.636,30.8215-114.491,50.4146-152.53279,117.522C26.5341,290.3597,70.9507,362.3699,126.0484,399.2542Z" transform="translate(-50.36418 -79.10903)"/><path class="cls-2" d="M126.0484,399.2542s44.4985,26.6329,98.50489,4.6158c54.0065-22.0169,73.971-69.7813,103.4129-104.7916,15.4182-18.3343,39.4065-27.6277,58.1814-42.6959,60.0321-48.1812,44.6709-135.6844-5.9999-162.4849-43.8659-23.2014-96.4034-18.9885-163.0393,11.8329-66.636,30.8215-114.491,50.4146-152.53279,117.522C26.5341,290.3597,70.9507,362.3699,126.0484,399.2542Z" transform="translate(-50.36418 -79.10903)"/></g><g id="Plants"><path class="cls-3" d="M427.08059,325.548c-3.215-.5832-7.386,3.5793-8.762,6.1522-.0962.18-1.0692,2.6275-1.4064,3.5594.0014-.0312.0049-.0629.0063-.0941a50.4799,50.4799,0,0,0-.5004-8.9514,68.67939,68.67939,0,0,0-1.5788-7.8565c-.6034-2.4068-1.3036-4.5711-1.9385-6.4809-.3509-1.0276-.693-1.9708-1.0194-2.8386l.0632.0245c.0558.0214.28441-3.9412.2701-4.1931-.1655-2.913-2.1976-8.4442-5.3594-9.2681a3.86667,3.86667,0,0,0-4.7101,3.3057c-.3536,2.2794,1.1432,4.6946,2.6596,6.2596,1.55421,1.604,5.831,3.3745,6.8959,3.7998.3201.9069.6554,1.8943.9989,2.9763.5921,1.9191,1.2432,4.0915,1.7916,6.5005.1564.6791.3093,1.38.4579,2.0933-.4739-1.0893-1.1766-2.6415-1.2596-2.7814-1.4893-2.5091-5.84149-6.4816-9.0273-5.7558a3.86669,3.86669,0,0,0-2.6569,5.1042c.7366,2.186,3.1779,3.6397,5.2449,4.3298,2.1513.7184,6.867.296,7.91481.1903.28849,1.4902.54579,3.04.72529,4.6586a49.86729,49.86729,0,0,1,.3032,8.8467c-.0119.1795-.0342.3618-.048.5418-.1351-.5604-1.1492-3.7054-1.244-3.9148-1.2047-2.6574-5.0944-7.084-8.3406-6.7124a3.86663,3.86663,0,0,0-3.2014,4.7816c.492,2.2535,2.7589,3.9665,4.7376,4.8796,2.2702,1.0476,7.7853,1.0597,8.0401,1.0597a68.17529,68.17529,0,0,1-1.3096,8.7362c-.4494,2.1406-.9851,4.2892-1.55059,6.4404-.19471-.7283-1.13571-3.6433-1.22671-3.8442-1.2047-2.6574-5.0944-7.0839-8.3407-6.7125a3.86687,3.86687,0,0,0-3.2013,4.7817c.492,2.2535,2.7589,3.9666,4.7376,4.8796,2.17011,1.0013,7.3163,1.0565,7.9884,1.0594q-.3852,1.46145-.7828,2.9238c-.8638,3.1829-1.7439,6.3697-2.5157,9.5413-.2644,1.0853-.5039,2.1673-.7307,3.2477-.3394-1.1166-.9757-3.0762-1.05-3.2399-1.2046-2.6574-5.0943-7.084-8.3405-6.7124a3.84078,3.84078,0,0,0-3.2251,4.5785c-2.73649.8629-4.752,5.4544-5.0641,7.9771-.011.0888-.02239.6947-.0291,1.3974-.1921-1.0269-.3731-2.0623-.5319-3.1104-.442-2.9041-.80139-5.8761-1.1746-8.8526q-.1161-.9303-.2367-1.8608c1.0585-.3449,4.945-1.6712,6.4292-3.0123,1.4685-1.3272,2.9706-3.426,2.7875-5.5133a3.51245,3.51245,0,0,0-4.0701-3.2798c-2.9154.5564-5.0902,5.4473-5.4156,8.0775-.0115.0934-.0236.7569-.0302,1.5041-.2252-1.609-.4715-3.2107-.7637-4.7921a62.29845,62.29845,0,0,0-1.9903-8.0541c.6157-.1955,5.0256-1.6281,6.6286-3.0768,1.4686-1.3272,2.9707-3.426,2.7876-5.5132a3.51234,3.51234,0,0,0-4.07-3.2798c-2.9154.5563-5.0903,5.4472-5.4157,8.0775-.0228.1839-.0476,2.5763-.0288,3.4764-.009-.027-.0164-.055-.0255-.0819a45.84436,45.84436,0,0,0-3.3493-7.4231,62.361,62.361,0,0,0-3.9054-6.1428c-1.2979-1.8427-2.5986-3.4481-3.7608-4.8593-.6333-.7563-1.2314-1.4439-1.79159-2.0728l.06149.0002c.0544-.0001-1.0468-3.4333-1.1413-3.642-1.09219-2.4149-4.622-6.4388-7.571-6.1038a3.51238,3.51238,0,0,0-2.9117,4.3409c.4452,2.0474,2.5031,3.6052,4.2996,4.4362,1.8415.8515,6.0448.9545,7.0863.9669.5677.664,1.1745,1.3913,1.8193,2.1961,1.1289,1.4331,2.3906,3.0615,3.6427,4.924.3544.5244.713,1.0685,1.0722,1.6245-.7577-.7683-1.8605-1.8543-1.97659-1.9457-2.08211-1.6399-7.069-3.5845-9.53191-1.9283a3.51232,3.51232,0,0,0-.5838,5.1943c1.3386,1.612,3.88271,2.0462,5.8601,1.9557,2.0581-.0942,5.9168-1.9932,6.7703-2.4252.7315,1.1687,1.4561,2.3982,2.1371,3.7113a45.30273,45.30273,0,0,1,3.1479,7.3989c.0487.156.08931.3178.1364.4749-.2976-.4308-2.1848-2.765-2.3336-2.9114-1.8894-1.8586-6.6326-4.3392-9.26249-2.9635a3.51212,3.51212,0,0,0-1.15071,5.0987c1.1533,1.7492,3.6344,2.4603,5.6098,2.5876,2.2664.1459,6.9447-1.646,7.1607-1.7293a61.94833,61.94833,0,0,1,1.7448,7.8322c.3186,1.9611.5668,3.9572.79041,5.9653-.40291-.5537-2.153-2.7167-2.29591-2.8573-1.8894-1.8586-6.6326-4.3392-9.2625-2.9635a3.5124,3.5124,0,0,0-1.1507,5.0988c1.1534,1.7492,3.6344,2.4603,5.6098,2.5875,2.1665.1395,6.5462-1.4954,7.1168-1.7126q.15105,1.36455.292,2.7338c.308,2.9799.60351,5.9685.9858,8.9087.1305,1.0062.2811,2.0016.4419,2.9914-.6525-.8355-1.83219-2.2884-1.9486-2.4029-1.8894-1.8586-6.6325-4.3392-9.2625-2.9634a3.51228,3.51228,0,0,0-1.1507,5.0987c1.1534,1.7492,3.6345,2.4602,5.6099,2.5875,1.9725.1271,5.7713-1.2141,6.8682-1.6198.2848,1.6645.6119,3.3055,1.0034,4.91.1836.6881.3269,1.4022.5409,2.0525q.30225.99015.5984,1.9608c.4561,1.3242.8752,2.5564,1.3314,3.7778q.32145.87975.6443,1.7308c-.5322-.9404-1.3584-2.3484-1.4494-2.4701-1.586-2.1233-5.8987-5.2939-8.7067-4.3324a3.51241,3.51241,0,0,0-1.90979,4.8656c.87509,1.9038,3.21989,2.9825,5.15329,3.4074,2.0792.4571,6.5119-.4484,7.2459-.6045.56581,1.4676,1.1306,2.875,1.6839,4.1969.604,1.4532,1.1872,2.7969,1.7448,4.0503h-4.8217v3.175h1.1545l1.8761,22.2248h15.009l1.8761-22.2248h.8659v-3.175h-4.2603c-.1178-1.588-.2272-3.3074-.3152-5.1543-.0714-1.4221-.1261-2.9207-.1638-4.4713.80051-.0742,5.7799-.5761,7.8212-1.7419,1.89231-1.0807,4.0026-2.9833,4.298-5.271a3.86675,3.86675,0,0,0-3.6029-4.4868c-3.2662-.0894-6.7586,4.6569-7.7289,7.4085-.0628.1778-.5721,2.3828-.8008,3.4841-.0195-.9395-.0344-1.8921-.0383-2.8709-.01679-1.401.0119-2.882.0309-4.3179q.0558-1.1154.1129-2.2542c.0222-.7668.137-1.4941.20141-2.2541.11959-1.1134.27859-2.2467.45519-3.3871,1.4477.0697,5.64881.1956,7.60881-.5574,2.03419-.7817,4.40839-2.3426,5.04689-4.5593a3.86669,3.86669,0,0,0-2.8816-4.9808c-3.215-.5831-7.3861,3.5793-8.7621,6.1522-.0465.0869-.2981.7047-.5834,1.4239.2094-1.131.4337-2.2662.6856-3.4057.6961-3.158,1.5041-6.3532,2.2997-9.5584q.249-1.00155.4937-2.0051c1.2239.0649,5.7414.2418,7.797-.548,2.0341-.7815,4.40821-2.3426,5.0468-4.5591a3.867,3.867,0,0,0-2.8817-4.9809c-3.215-.5832-7.386,3.5794-8.762,6.1523-.0488.0912-.32389.768-.6266,1.5329.4058-1.7419.7872-3.4847,1.1133-5.2248a68.57437,68.57437,0,0,0,1.14541-9.0613c.70989.0431,5.807.318,8.02739-.5352,2.0342-.7816,4.4084-2.3426,5.0469-4.5591A3.86667,3.86667,0,0,0,427.08059,325.548Zm-26.851,69.5715c-.6849-1.4361-1.4168-3.0156-2.17959-4.744-.52521-1.182-1.06131-2.4342-1.59991-3.7361a32.60822,32.60822,0,0,0,5.0393-3.0608,37.03157,37.03157,0,0,0,6.0719,1.4813c-.0002,1.7316.0226,3.401.0674,4.9779.0472,1.8228.1188,3.5091.2006,5.0817Zm7.9037-22.0956c-.0839.7795-.2195,1.5698-.25729,2.3226q-.08177,1.1367-.16191,2.2511c-.056,1.5409-.1135,2.9725-.1287,4.4077q-.0183,1.0311-.0236,2.0331c-.1742-1.1768-.4653-2.9502-.5105-3.1113-.7882-2.8092-3.9624-7.7739-7.2275-7.8985a3.86688,3.86688,0,0,0-3.88879,4.2415,4.93882,4.93882,0,0,0,.45219,1.7257,13.1493,13.1493,0,0,0-.6068,3.9188c.005.1712.2939,2.2065.4599,3.2146-.3236-.7899-.6475-1.5924-.9707-2.4206-.472-1.182-.93159-2.4465-1.3847-3.6697q-.31725-.9636-.641-1.9474c-.2318-.6573-.3721-1.3112-.56589-1.9764-.26251-.9827-.498-1.9951-.721-3.0193,1.24969-.4141,4.85139-1.6802,6.26649-2.959a8.89907,8.89907,0,0,0,2.6063-3.873c.1745.0909.3495.1839.5209.263,1.9759.9117,6.4092,1.0387,7.6965,1.0564C408.68049,369.4056,408.36659,371.2208,408.13329,373.0239Z" transform="translate(-50.36418 -79.10903)"/><path class="cls-3" d="M423.18639,318.4474c1.7557-1.2911,3.6333-3.4237,3.6638-5.7301a3.86658,3.86658,0,0,0-4.0947-4.0429c-3.2548.2864-6.1786,5.4027-6.8263,8.2475-.056.246-.4896,4.1915-.431,4.1796C415.50239,321.1007,421.12529,319.9632,423.18639,318.4474Z" transform="translate(-50.36418 -79.10903)"/><path class="cls-3" d="M380.57649,330.0714c.0033-.0021,4.3972-2.8037,5.6488-4.7619,1.066-1.668,1.9605-4.0889,1.2326-6.0537a3.51212,3.51212,0,0,0-4.7916-2.0885c-2.665,1.3064-3.471,6.5981-3.0904,9.2209C379.60889,326.6149,380.53069,330.1006,380.57649,330.0714Z" transform="translate(-50.36418 -79.10903)"/></g><g id="Board"><rect class="cls-4" x="166.93012" y="60.65017" width="208.64919" height="125.7728"/><rect class="cls-4" x="166.93012" y="182.55997" width="208.64919" height="3.863"/><path class="cls-5" d="M392.29179,225.0213c.0683.1182,1.6228-1.0994,1.69321-.9775.16009.2773-6.428,5.7521-6.26731,6.0304.3567.6179,12.8454-8.1922,13.1814-7.6103.3975.6885-15.0827,10.1463-14.6769,10.8492.5135.8894,17.8395-11.2556,18.2535-10.5386.4294.7436-19.2411,11.5946-18.7912,12.3738.4851.8403,20.1798-12.7622,20.661-11.9287.5094.8823-21.48449,12.4298-20.9519,13.3524.5733.9929,21.8061-13.7539,22.3102-12.8808.5031.8715-22.9465,15.1875-22.4576,16.0344.66781,1.1568,24.7055-15.6048,25.2862-14.599.6184,1.071-25.7835,14.3539-25.22839,15.3155.562.9734,25.18859-16.017,25.82709-14.9112.5444.943-26.3855,14.9207-25.7354,16.0468.5741.9941,26.0125-16.5371,26.6701-15.398.5807,1.0056-26.6525,17.0607-26.08679,18.0405.67779,1.174,27.40209-17.338,28.05909-16.1999.63691,1.1031-28.1716,16.5952-27.4403,17.862.6485,1.1232,27.8348-17.8351,28.5989-16.5115.636,1.1015-29.0132,15.9037-28.4252,16.9222.6974,1.2081,28.0132-17.7737,28.7062-16.5736.65031,1.1264-29.1424,15.9661-28.47269,17.1261.76549,1.3257,28.11-17.7923,28.78679-16.6201.5864,1.0158-29.1476,16.0809-28.5075,17.1895.7146,1.2377,28.1829-17.7921,28.8414-16.6516.721,1.2488-28.1973,17.5715-27.4653,18.8394.6261,1.0843,27.9445-17.8033,28.6674-16.5511.67221,1.1642-28.44779,16.4406-27.8012,17.5607.721,1.2487,27.6859-17.4354,28.3142-16.3472.5917,1.0249-28.2711,16.0627-27.6803,17.0861.7266,1.2584,27.3277-17.2168,27.9508-16.1374.6496,1.125-26.655,16.7698-26.0079,17.8905.6374,1.1042,25.8124-16.586,26.5412-15.3236.5785,1.0019-27.05059,14.2808-26.3893,15.4262.7202,1.2474,25.7563-16.3662,26.404-15.2443.6608,1.1445-26.9092,14.2787-26.3182,15.3023.6168,1.0682,25.6606-16.353,26.3266-15.1996.5759.9976-24.2581,15.7945-23.6759,16.8031.5321.9216,23.1319-14.8067,23.7604-13.7181.4723.8182-22.0814,13.7223-21.5568,14.6312.5422.9391,20.7748-13.0892,21.2489-12.268.5194.8995-21.3609,11.5487-20.8695,12.3997.4525.7839,20.2177-12.9905,20.7883-12.0021.4726.8185-17.1432,12.0657-16.7537,12.7403.3812.6604,14.967-9.6338,15.3968-8.8894.3019.5228-11.4855,8.2126-11.2027,8.7026.22951.3974,8.6134-5.5785,8.8756-5.1243.11791.2043-5.405,3.8173-5.2697,4.0517.0861.1491,2.5728-1.713,2.6714-1.5423.0445.0771-2.08379,1.1982-2.0394,1.2751.0837.1448,1.61-1.1167,1.6911-.9763" transform="translate(-50.36418 -79.10903)"/><path class="cls-6" d="M399.38209,246.2864a3.38273,3.38273,0,0,0,1.3943-.619,3.4217,3.4217,0,0,0,.8738-.9704,3.61308,3.61308,0,0,0,.5489-1.968,3.268,3.268,0,0,0-.4802-1.8076,2.75184,2.75184,0,0,0-1.4255-1.0886,2.95148,2.95148,0,0,0,.9415-.7029,2.74944,2.74944,0,0,0,.5713-1.8165,3.13949,3.13949,0,0,0-.5668-1.8835,3.785,3.785,0,0,0-3.1971-1.3136h-5.9636v12.3379h5.56A8.53123,8.53123,0,0,0,399.38209,246.2864Zm-4.8424-10.0274H397.224a4.62937,4.62937,0,0,1,1.45819.1929,1.1039,1.1039,0,0,1,.6631,1.1381,1.16514,1.16514,0,0,1-.5018,1.0841,2.479,2.479,0,0,1-1.3051.3054h-2.9987Zm0,8.0524v-3.2891h3.0367a3.1114,3.1114,0,0,1,1.23361.209,1.32411,1.32411,0,0,1,.78569,1.322,1.55509,1.55509,0,0,1-.8108,1.5408,2.90817,2.90817,0,0,1-1.249.2173Z" transform="translate(-50.36418 -79.10903)"/><path class="cls-6" d="M404.28879,245.6413a4.96956,4.96956,0,0,0,3.2133,1.1227,4.42938,4.42938,0,0,0,3.4322-1.3309,2.97991,2.97991,0,0,0,.8852-1.6489h-2.4358a1.99351,1.99351,0,0,1-.4913.6271,2.01711,2.01711,0,0,1-1.3245.4191,2.41842,2.41842,0,0,1-1.3147-.3435,2.18828,2.18828,0,0,1-.9543-1.9256h6.6447a11.71265,11.71265,0,0,0-.0784-1.8104,4.47647,4.47647,0,0,0-.72719-1.8859,3.70145,3.70145,0,0,0-1.57691-1.3499,5.19088,5.19088,0,0,0-2.1454-.427,4.39781,4.39781,0,0,0-3.2622,1.2651,4.93684,4.93684,0,0,0-1.2569,3.6351A4.42378,4.42378,0,0,0,404.28879,245.6413Zm1.7039-6.0653a1.895,1.895,0,0,1,1.4238-.5209,2.09567,2.09567,0,0,1,1.4156.4913,1.99149,1.99149,0,0,1,.6355,1.4416h-4.1102A2.48156,2.48156,0,0,1,405.99269,239.576Z" transform="translate(-50.36418 -79.10903)"/><rect class="cls-6" x="354.21571" y="155.71647" width="5.3616" height="1.2451"/><path class="cls-5" d="M388.34569,149.036c.075.1299,1.6257-1.0943,1.6931-.9775.166.2875-6.7253,6.2007-6.542,6.5181.31821.5512,13.6867-8.7208,14.0413-8.1068.3365.5828-14.7129,8.2115-14.3817,8.7852.3679.6372,14.75861-9.3768,15.1293-8.7349.3321.5752-16.2088,9.7643-15.8582,10.3715.4776.8273,17.25551-10.8869,17.6558-10.1936.421.7291-19.0944,12.9897-18.62,13.8114.5143.8908,21.6278-13.8557,22.2205-12.8291.4638.8034-22.8737,12.983-22.3284,13.9275.5938,1.0284,22.7538-14.5194,23.3525-13.4825.5082.8803-23.8965,14.8152-23.4035,15.669.5517.9557,24.7427-15.6343,25.3268-14.6226.6646,1.1511-25.8468,14.3426-25.2686,15.344.5779,1.001,25.1853-16.1253,25.8715-14.9369.6402,1.109-26.34909,14.8079-25.8059,15.7487.6423,1.1126,25.888-16.3231,26.4841-15.2906.5971,1.0341-27.0818,14.6459-26.4474,15.7446.6539,1.1326,26.1586-16.5621,26.7905-15.4676.689,1.1934-27.4656,14.4865-26.7729,15.6863.6983,1.2097,26.3218-16.6015,26.9301-15.548.581,1.0064-27.2978,15.5283-26.6653,16.624.6858,1.1877,26.8911-16.9513,27.5084-15.8819.71031,1.2301-28.0665,15.0488-27.4509,16.1153.757,1.3109,27.0231-17.0122,27.6339-15.9544.6659,1.1536-27.8628,16.3853-27.2498,17.447.7135,1.2358,27.5602-17.5746,28.28011-16.3276.61739,1.0693-28.04761,17.3126-27.36111,18.5017.7723,1.3377,28.1208-17.8125,28.8036-16.6299.6808,1.1793-28.1676,17.6644-27.5669,18.7047.6783,1.1749,28.0566-17.8506,28.772-16.6115.7175,1.2428-29.3638,15.5727-28.65859,16.7941.76909,1.3322,28.10259-17.7038,28.74279-16.5948.5931,1.0273-28.5701,16.5494-27.9843,17.5639.6803,1.1784,27.8118-17.5598,28.46251-16.4329.67339,1.1665-28.20461,16.3498-27.52711,17.5232.6408,1.11,27.3402-17.2848,27.9897-16.1598.7179,1.2433-28.025,15.6143-27.3351,16.8092.6771,1.1727,26.8367-17.1568,27.5567-15.9099.6663,1.1542-26.1065,16.4453-25.436,17.6066.5904,1.0226,25.2804-15.901,25.8456-14.9221.6018,1.0424-24.3992,15.1352-23.8353,16.1119.57951,1.0037,23.28451-14.8106,23.87651-13.7852.51029.8839-23.87051,13.151-23.35271,14.0479.54.9354,22.7542-14.428,23.3132-13.4598.5187.8985-22.0101,13.3132-21.517,14.1673.5896,1.0214,20.6618-13.2615,21.2387-12.2623.4823.8354-19.0663,12.2013-18.65,12.9224.40981.7098,17.4423-11.1918,17.9279-10.3508.3522.6101-17.0898,9.7704-16.6563,10.5211.4524.7838,15.7636-10.0865,16.1903-9.3474.3093.5355-12.5713,8.7035-12.2355,9.285.2777.4812,9.9865-6.3695,10.248-5.9166.1246.2159-5.442,4.3109-5.3169,4.5277.0844.1461,1.7627-1.1795,1.8329-1.0581.0453.0784-1.7812.9507-1.7414,1.0195.081.1404,1.6076-1.1208,1.691-.9764" transform="translate(-50.36418 -79.10903)"/><path class="cls-6" d="M395.27489,174.2499h4.2892V163.5088h2.9926l.319-3.5964h-3.3116v-2.0483c0-.8478.1703-1.1829.9902-1.1829h2.3214v-3.7324h-2.97c-3.1916,0-4.6308,1.4058-4.6308,4.0962v2.8674h-2.2311v3.6413h2.2311Z" transform="translate(-50.36418 -79.10903)"/><path class="cls-5" d="M339.33389,178.4927c.0698.1209,1.6144-1.1138,1.69311-.9775.129.2234-5.42961,4.3708-5.29911,4.5969.2888.5002,10.1767-6.5116,10.45211-6.0345.33229.5754-12.48011,8.4025-12.18,8.9224.37879.6562,15.16069-9.7484,15.59169-9.0018.4682.8109-17.3128,11.6998-16.8431,12.5132.5357.9278,20.03741-12.7193,20.5357-11.8563.55171.9556-21.5139,14.1313-20.9837,15.0497.5747.9955,23.4232-14.7767,23.9659-13.8366.617,1.0686-24.4861,13.2872-23.987,14.1516.6489,1.124,23.61151-15.1471,24.26751-14.0109.51269.8879-24.86061,13.7448-24.29641,14.7221.6522,1.1297,24.25741-15.5688,24.9345-14.3959.5787,1.0024-25.2722,15.9199-24.7365,16.848.6306,1.0922,26.1779-16.4476,26.7555-15.4473.5582.9669-26.7219,17.1769-26.1167,18.225.665,1.1519,27.4718-17.4713,28.1691-16.2635.5878,1.0181-28.431,16.1642-27.7454,17.3516.78,1.3509,27.8764-17.5579,28.5101-16.4603.657,1.138-29.0239,15.7068-28.295,16.9693.70981,1.2292,27.9207-17.8235,28.6583-16.5458.5977,1.0352-29.144,15.8373-28.4486,17.0419.6327,1.0958,28.10611-17.7105,28.7484-16.5979.6456,1.1182-28.9592,16.3835-28.3135,17.5019.7453,1.291,28.1775-17.8015,28.8414-16.6516.674,1.1674-29.3618,15.7306-28.6784,16.9142.7611,1.3183,28.13521-17.8748,28.8414-16.6516.7245,1.2548-27.9684,17.8096-27.3491,18.8824.6277,1.0871,27.9001-17.5753,28.5354-16.4749.7269,1.259-28.63549,15.9553-27.9244,17.1871.6581,1.1398,27.5821-17.5507,28.2863-16.3311.5948,1.0304-27.7163,16.4455-27.0075,17.6733.6932,1.2007,26.7343-17.1425,27.4736-15.862.638,1.1052-27.4738,15.3161-26.8332,16.4255.5945,1.0298,26.3653-16.7675,27.0345-15.6083.6759,1.1706-26.6679,15.3038-26.0425,16.387.6148,1.0647,25.5301-16.2344,26.1773-15.1136.5073.8787-24.2281,15.6867-23.6999,16.6014.5592.9686,23.1122-14.8609,23.7691-13.7231.5755.9967-23.6123,13.1024-23.0439,14.087.5838,1.011,22.4595-14.1902,22.98911-13.2728.49459.8566-21.30171,13.1829-20.78681,14.0747.4841.8386,19.8262-12.7254,20.3799-11.7664.4535.7855-20.5685,11.018-20.0843,11.8569.4949.8572,19.5823-12.3253,20.0238-11.5607.4807.8326-19.7242,10.9154-19.2618,11.7163.468.8107,18.5533-11.8154,19.03121-10.9877.37569.6508-18.33981,10.4549-17.89871,11.219.403.6981,17.0195-10.9688,17.5142-10.1118.3718.6438-13.58549,9.6023-13.2356,10.2084.3039.5263,10.9438-6.9982,11.23811-6.4884.16359.2833-6.57511,5.0996-6.42121,5.3662.1135.1967,2.8915-1.9225,3.001-1.7326.0603.1043-2.8805,1.5313-2.8107,1.6521.1028.1781,2.6023-1.7416,2.70591-1.5622.04849.0841-2.09571,1.2092-2.05151,1.2856.0764.1325,1.6147-1.1082,1.691-.9763" transform="translate(-50.36418 -79.10903)"/><path class="cls-6" d="M339.66639,198.9546a10.95568,10.95568,0,0,0,16.8543-9.7282,7.8183,7.8183,0,0,0,1.9221-1.9942,7.69962,7.69962,0,0,1-2.2124.6064,3.85881,3.85881,0,0,0,1.6933-2.1312,7.71922,7.71922,0,0,1-2.4456.9354,3.85483,3.85483,0,0,0-6.5646,3.5135,10.9319,10.9319,0,0,1-7.9396-4.0253,3.85707,3.85707,0,0,0,1.1922,5.1436,3.84039,3.84039,0,0,1-1.7456-.4822,3.857,3.857,0,0,0,3.0899,3.8263,3.856,3.856,0,0,1-1.739.0655,3.854,3.854,0,0,0,3.598,2.6754A7.74139,7.74139,0,0,1,339.66639,198.9546Z" transform="translate(-50.36418 -79.10903)"/><path class="cls-5" d="M292.25129,148.7809c.06871.119,1.6126-1.117,1.6931-.9776.1905.33-6.7787,6.2751-6.5869,6.6075.3459.5989,13.8041-8.8487,14.1847-8.1895.3867.6698-15.0438,8.7498-14.7346,9.2855.3736.647,15.4876-9.9921,15.94241-9.2044.38869.6733-16.63211,9.2439-16.26141,9.886.4087.7079,16.557-10.6589,17.0333-9.8341.4114.7127-18.486,12.698-18.0587,13.438.5052.875,21.1437-13.4587,21.6855-12.5202.4842.8385-22.5605,14.4997-21.9831,15.4999.5921,1.0255,24.0837-15.3562,24.7122-14.2676.6695,1.1597-25.107,16.0898-24.4974,17.1457.7144,1.2374,26.1724-16.7206,26.86961-15.5131.68709,1.1902-27.47861,14.6572-26.81191,15.812.7045,1.2202,26.4253-16.6758,27.0398-15.6114.5505.9535-27.6944,14.5482-27.0094,15.7345.7209,1.2487,26.3627-16.9369,27.1059-15.6496.5731.9927-27.2406,16.7544-26.531,17.9834.6931,1.2004,27.4932-17.5825,28.2333-16.3006.6334,1.097-28.6028,15.9104-27.8711,17.1777.6943,1.2026,27.7669-17.7111,28.4943-16.4513.6173,1.0691-28.6055,16.638-27.8955,17.8678.6184,1.0712,28.05861-17.9129,28.8005-16.628.6083,1.0537-29.066,16.2092-28.40089,17.3612.72369,1.2535,28.10289-17.9306,28.84139-16.6516.6095,1.0558-29.2847,15.8667-28.7003,16.8789.7585,1.3138,28.1961-17.7693,28.8414-16.6516.67751,1.1735-27.9842,17.7696-27.4003,18.7809.6383,1.1054,27.8074-17.6955,28.5179-16.4648.632,1.0945-28.1976,16.4841-27.5727,17.5664.7098,1.2295,27.3193-17.5028,28.0684-16.2053.63421,1.0984-28.6119,15.2373-28.0212,16.2604.6458,1.1185,27.335-17.4075,28.0389-16.1883.7129,1.2347-27.7613,15.9346-27.0643,17.1417.5864,1.0157,26.6932-17.0236,27.3914-15.8144.6727,1.1652-27.4812,15.1545-26.7994,16.3354.57781,1.0007,26.27781-16.8057,26.9854-15.5801.5719.9906-27.5374,14.5169-26.8598,15.6907.5798,1.0042,26.1526-16.8022,26.89-15.5249.5791,1.003-26.164,15.4777-25.59079,16.4706.69369,1.2014,25.07259-15.9747,25.72169-14.8504.5172.8957-25.4229,14.4609-24.8633,15.43.675,1.1691,24.3357-15.4601,24.9463-14.4027.5572.9651-22.4815,14.9046-21.98769,15.7598.51609.894,21.11369-13.5334,21.69539-12.5259.4909.8503-21.225,12.0378-20.7547,12.8526.5685.9846,19.9908-12.8407,20.55331-11.8664.47739.8268-18.94811,11.5321-18.48171,12.34.4463.7731,17.4102-11.1004,17.8643-10.3139.3793.6569-14.8857,9.9583-14.5372,10.5618.3247.5626,12.75161-8.2075,13.11761-7.5735.28929.501-11.87811,6.95-11.58931,7.4501.2711.4695,10.475-6.6812,10.7492-6.2061.1567.2713-5.5335,4.5264-5.4031,4.7523.0817.1415,1.6115-1.1138,1.691-.9762" transform="translate(-50.36418 -79.10903)"/><rect class="cls-6" x="243.12652" y="79.89227" width="3.6468" height="11.781"/><path class="cls-6" d="M295.29649,157.4588a2.17412,2.17412,0,1,0-2.1563-2.1744A2.16576,2.16576,0,0,0,295.29649,157.4588Z" transform="translate(-50.36418 -79.10903)"/><path class="cls-6" d="M302.96679,164.5981c0-1.656.76221-2.6429,2.222-2.6429,1.3408,0,1.98521.9471,1.98521,2.6429v6.1842h3.62949V163.323c0-3.1555-1.7887-4.6813-4.2863-4.6813a4.10764,4.10764,0,0,0-3.5504,1.9465v-1.5869h-3.4981v11.781h3.4981Z" transform="translate(-50.36418 -79.10903)"/><path class="cls-5" d="M302.59719,224.892c.0782.1352,1.6225-1.1001,1.6932-.9776.1022.1771-4.0232,2.7699-3.9132,2.9604.189.3274,6.7219-4.3479,6.9241-3.9976.2453.4248-9.4337,6.5079-9.1878,6.9338.3009.5212,12.55951-8.099,12.9266-7.4631.3515.6088-14.76009,9.7255-14.3648,10.4103.4713.8162,17.2073-11.0044,17.6705-10.202.3946.6834-18.2403,10.0897-17.8601,10.7483.4967.8603,17.9611-11.4271,18.4189-10.6342.4292.7433-19.1358,10.4603-18.6505,11.3009.5314.9202,18.8283-12.0348,19.3325-11.1616.4758.8241-20.4755,13.615-19.9687,14.4927.6295,1.0906,22.6574-14.3291,23.1978-13.3933.5098.8832-23.7713,13.6049-23.2704,14.4725.577.9993,23.5994-15.0852,24.23171-13.9902.54359.9416-24.67341,15.1027-24.16221,15.9882.56421.9771,25.2734-15.9864,25.8774-14.9404.6812,1.1799-26.18719,16.1549-25.5518,17.2555.7408,1.283,26.6905-17.0039,27.3808-15.8083.5965,1.0332-27.5614,16.4708-26.9616,17.5096.60941,1.0555,27.5722-17.3312,28.1838-16.272.6385,1.1059-28.3459,16.3794-27.6831,17.5275.6493,1.1246,27.8585-17.7257,28.5693-16.4945.7081,1.2264-28.5593,16.8919-27.9693,17.9139.7883,1.3653,28.1966-17.7617,28.8385-16.65.6079,1.053-28.9243,16.4445-28.3167,17.4969.73,1.2644,28.1964-17.7687,28.8414-16.6515.6166,1.0677-28.2762,17.3474-27.6196,18.4846.7785,1.3483,27.95-17.5693,28.5703-16.495.726,1.2574-28.0405,16.7087-27.3276,17.9434.6432,1.114,27.2058-17.4555,27.9628-16.1443.6125,1.0609-27.2337,16.3701-26.6741,17.3393.6716,1.1633,26.4238-16.7997,27.0923-15.6417.6176,1.0695-27.4087,14.8394-26.7937,15.9045.6592,1.1419,26.2078-16.6716,26.8748-15.5162.5704.9878-26.427,15.1894-25.7702,16.327.5829,1.0095,25.3251-15.9076,25.882-14.943.5171.8955-24.4972,15.0635-23.87749,16.1369.66009,1.1433,23.40769-14.7117,23.92619-13.8138.5671.9823-21.6984,14.0209-21.1654,14.9442.4881.8453,20.1887-12.9743,20.7596-11.9855.4887.8464-18.5897,11.7877-18.1212,12.5992.4465.7735,16.9377-10.6913,17.3327-10.0071.4194.7265-16.8697,9.4547-16.5047,10.0868.3946.6834,15.7591-10.0919,16.1893-9.3469.259.4487-10.43349,8.3731-10.1438,8.8747.21431.3714,6.6092-4.2448,6.795-3.9231.0865.15-3.9576,2.7428-3.8639,2.9052.0693.1201,1.6117-1.1136,1.691-.9763" transform="translate(-50.36418 -79.10903)"/><path class="cls-6" d="M312.318,231.5347c2.57969,0,2.88519.0099,3.90379.0564a5.34684,5.34684,0,0,1,1.79421.3327,3.19959,3.19959,0,0,1,1.83329,1.8334,5.34776,5.34776,0,0,1,.3328,1.7942c.0464,1.0186.0564,1.3241.0564,3.9039,0,2.5797-.01,2.8853-.0564,3.9039a5.34312,5.34312,0,0,1-.3328,1.7939,3.199,3.199,0,0,1-1.83329,1.8337,5.34684,5.34684,0,0,1-1.79421.3327c-1.0186.0464-1.324.0561-3.90379.0561-2.58,0-2.88531-.0097-3.904-.0561a5.34446,5.34446,0,0,1-1.79391-.3327,3.19885,3.19885,0,0,1-1.8337-1.8337,5.34929,5.34929,0,0,1-.3327-1.7939c-.0464-1.0186-.0561-1.3242-.0561-3.9039,0-2.5798.0097-2.8853.0561-3.9039a5.35393,5.35393,0,0,1,.3327-1.7942,3.19948,3.19948,0,0,1,1.8337-1.8334,5.34446,5.34446,0,0,1,1.79391-.3327c1.01869-.0465,1.32439-.0564,3.904-.0564m0-1.7407c-2.62391,0-2.95291.0112-3.98341.0582a7.09229,7.09229,0,0,0-2.345.4491,4.93879,4.93879,0,0,0-2.8255,2.8256,7.08344,7.08344,0,0,0-.4492,2.3451c-.047,1.0305-.0581,1.3594-.0581,3.9833,0,2.6238.0111,2.9529.0581,3.9834a7.08278,7.08278,0,0,0,.4492,2.345,4.93879,4.93879,0,0,0,2.8255,2.8256,7.08716,7.08716,0,0,0,2.345.4491c1.0305.047,1.3595.058,3.98341.058,2.62379,0,2.95279-.011,3.98319-.058a7.089,7.089,0,0,0,2.3452-.4491,4.93955,4.93955,0,0,0,2.8255-2.8256,7.09276,7.09276,0,0,0,.4493-2.345c.04681-1.0305.0579-1.3596.0579-3.9834,0-2.6239-.01109-2.9528-.0579-3.9833a7.09343,7.09343,0,0,0-.4493-2.3451,4.93955,4.93955,0,0,0-2.8255-2.8256,7.09411,7.09411,0,0,0-2.3452-.4491c-1.0304-.047-1.3594-.0582-3.98319-.0582" transform="translate(-50.36418 -79.10903)"/><path class="cls-6" d="M312.318,234.4942a4.9611,4.9611,0,1,0,4.96109,4.9611,4.96117,4.96117,0,0,0-4.96109-4.9611m0,8.1815a3.22045,3.22045,0,1,1,3.22039-3.2204,3.22044,3.22044,0,0,1-3.22039,3.2204" transform="translate(-50.36418 -79.10903)"/><path class="cls-6" d="M318.63449,234.298a1.1594,1.1594,0,1,1-1.1593-1.1593,1.15949,1.15949,0,0,1,1.1593,1.1593" transform="translate(-50.36418 -79.10903)"/><line class="cls-7" x1="321.35901" y1="114.34437" x2="335.51151" y2="114.34437"/><line class="cls-7" x1="321.35901" y1="117.25807" x2="335.51151" y2="117.25807"/><line class="cls-7" x1="321.35901" y1="120.17187" x2="335.51151" y2="120.17187"/><line class="cls-7" x1="321.35901" y1="123.08557" x2="335.51151" y2="123.08557"/><line class="cls-7" x1="275.98771" y1="80.21187" x2="318.86151" y2="80.21187"/><line class="cls-7" x1="271.40891" y1="140.98437" x2="283.68831" y2="128.70497"/><line class="cls-7" x1="349.24782" y1="106.01937" x2="349.24782" y2="137.23817"/><line class="cls-7" x1="286.39391" y1="156.38567" x2="300.54651" y2="156.38567"/><line class="cls-7" x1="286.39391" y1="159.29937" x2="300.54651" y2="159.29937"/><line class="cls-7" x1="286.39391" y1="162.21317" x2="300.54651" y2="162.21317"/><line class="cls-7" x1="286.39391" y1="165.12687" x2="300.54651" y2="165.12687"/><line class="cls-7" x1="245.18522" y1="106.85187" x2="259.33771" y2="106.85187"/><line class="cls-7" x1="245.18522" y1="109.76557" x2="259.33771" y2="109.76557"/><line class="cls-7" x1="245.18522" y1="112.67937" x2="259.33771" y2="112.67937"/><line class="cls-7" x1="245.18522" y1="115.59307" x2="259.33771" y2="115.59307"/><line class="cls-7" x1="311.78521" y1="85.62307" x2="325.93771" y2="85.62307"/><line class="cls-7" x1="311.78521" y1="88.53687" x2="325.93771" y2="88.53687"/><line class="cls-7" x1="311.78521" y1="91.45057" x2="325.93771" y2="91.45057"/><line class="cls-7" x1="311.78521" y1="94.36437" x2="325.93771" y2="94.36437"/><line class="cls-7" x1="315.11521" y1="161.79687" x2="329.26771" y2="161.79687"/><line class="cls-7" x1="315.11521" y1="164.71067" x2="329.26771" y2="164.71067"/><line class="cls-7" x1="315.11521" y1="167.62437" x2="329.26771" y2="167.62437"/><line class="cls-7" x1="315.11521" y1="170.53817" x2="329.26771" y2="170.53817"/><polygon class="cls-1" points="320.11 136.406 308.039 137.238 308.039 150.142 321.359 149.309 320.11 136.406"/><line class="cls-7" x1="310.46082" y1="140.92677" x2="318.23751" y2="140.37127"/><line class="cls-7" x1="310.18311" y1="144.25967" x2="318.51521" y2="143.98197"/><polygon class="cls-1" points="272.895 93.356 260.823 94.189 260.823 107.092 274.143 106.26 272.895 93.356"/><line class="cls-7" x1="263.24511" y1="97.87727" x2="271.02182" y2="97.32177"/><line class="cls-7" x1="262.96741" y1="101.21007" x2="271.29961" y2="100.93237"/><polygon class="cls-1" points="252.064 130.573 239.993 131.406 239.993 144.309 253.313 143.477 252.064 130.573"/><line class="cls-7" x1="242.41472" y1="135.09427" x2="250.19142" y2="134.53877"/><line class="cls-7" x1="242.13692" y1="138.42717" x2="250.46912" y2="138.14937"/></g><g id="Character"><path class="cls-4" d="M285.60929,238.2448s2.2664,4.155,2.2664,6.0436c0,1.8887-10.5764,24.7412-10.7653,25.4966-.1888.7555,1.1332,4.9105.3778,7.9323-.7555,3.0218-3.5885,6.2325-3.5885,6.2325l-3.5884-15.4868a9.546,9.546,0,0,0,2.0775-9.4432c-1.8886-5.4771-1.8886-17.1866-1.8886-17.1866Z" transform="translate(-50.36418 -79.10903)"/><path class="cls-4" d="M267.28949,410.4749s-.9416,9.5849-.1862,10.1515c.7555.5666,4.6058.4838,7.2663,0,3.6331-.6605,5.613.1652,8.257.1652,2.6441,0,8.3086.7227,8.9177-.4954,1.156-2.312-5.7461-4.5331-9.5234-6.7995s-7.3657-4.155-7.3657-4.155Z" transform="translate(-50.36418 -79.10903)"/><path class="cls-8" d="M238.58219,266.5743s-3.3995,18.1309-3.5884,21.5305c-.18879,3.3995-9.632,118.4039-9.632,118.4039l8.6877.7555,21.7193-108.9608,1.5109-.3777,10.0098,112.5492,8.1212-1.5109.3777-124.0699-2.4552-18.6975Z" transform="translate(-50.36418 -79.10903)"/><path class="cls-9" d="M247.27,208.782s-15.10911-3.2106-18.69751-4.155c-3.5884-.9443-4.5328,7.5546-5.6659,10.3875-1.1332,2.833-11.8985,22.4748-11.143,23.9857s3.58841,5.4771,9.2543,1.5109c5.6659-3.9661,9.0655-10.5763,9.0655-10.5763s7.5545,21.3416,7.9322,23.7968c.3778,2.4552-.9443,12.6539,0,14.7314.94441,2.0775,10.3875,3.3995,18.131,3.2106,7.74341-.1888,16.2422-.3777,17.37541-3.2106,1.13319-2.833-.18881-23.7969-.18881-23.7969s11.7095-2.0775,13.5981-4.9104c1.88871-2.833-2.26629-6.7991-6.0436-14.1648s-4.7216-16.2423-7.5545-17.942c-2.833-1.6998-21.3416,1.5109-23.0414,1.5109A12.186,12.186,0,0,1,247.27,208.782Z" transform="translate(-50.36418 -79.10903)"/><polygon class="cls-8" points="199.739 134.772 202.383 141.571 198.794 182.933 207.482 197.664 212.582 180.666 205.027 141.005 209.182 132.884 203.516 130.428 199.172 133.828 199.739 134.772"/><path class="cls-9" d="M243.115,207.6489l-.56661,12.0872,12.6538-6.2325,11.143,6.6103-6.0436-12.6539a20.2147,20.2147,0,0,0-9.2544-2.4552A12.16854,12.16854,0,0,0,243.115,207.6489Z" transform="translate(-50.36418 -79.10903)"/><path class="cls-4" d="M245.75909,194.4284a51.88749,51.88749,0,0,1,.5665,9.6321c-.1888,5.2881.5666,4.155,3.0219,8.1211,2.4552,3.9661,4.155,5.477,6.23251,3.2107,2.07749-2.2664,2.07749-6.988,2.45519-7.9323s.7555-11.8984.7555-11.8984S256.14659,197.4502,245.75909,194.4284Z" transform="translate(-50.36418 -79.10903)"/><path class="cls-4" d="M259.32949,172.1503a49.95979,49.95979,0,0,1,2.4346,15.0943c0,8.2775,0,11.0367-2.7592,12.4974-2.7591,1.4607-6.9791,1.623-9.57589,0a36.65269,36.65269,0,0,1-7.14141-5.6806c-1.7854-1.9477-6.6545-7.953-7.3037-12.0106s7.1414-9.2513,13.6336-11.8482A9.814,9.814,0,0,1,259.32949,172.1503Z" transform="translate(-50.36418 -79.10903)"/><path class="cls-3" d="M250.96729,182.8994c.1793.9425-.0799,1.7835-.5789,1.8784-.4989.0949-1.0488-.5922-1.2281-1.5347s.0799-1.7835.5789-1.8784C250.23809,181.2698,250.788,181.9569,250.96729,182.8994Z" transform="translate(-50.36418 -79.10903)"/><path class="cls-7" d="M256.91029,180.5166a2.14763,2.14763,0,0,1,2.4525-.8175" transform="translate(-50.36418 -79.10903)"/><line class="cls-7" x1="206.54612" y1="112.64807" x2="209.20302" y2="110.80877"/><path class="cls-7" d="M246.69159,180.5166s.8175-2.8613,4.4963-1.8394" transform="translate(-50.36418 -79.10903)"/><path class="cls-7" d="M254.66219,178.2685s.2044-2.0438,3.0656-2.0438" transform="translate(-50.36418 -79.10903)"/><path class="cls-7" d="M255.38379,180.2646s3.246,5.1937,3.0837,6.0052-3.4083,3.0838-3.4083,3.0838" transform="translate(-50.36418 -79.10903)"/><path class="cls-8" d="M239.853,189.8414a2.12,2.12,0,0,0,1.46079-2.2722c0-1.9477-.9739-3.0838-.9739-5.843,0-2.7591,8.6022-7.1414,12.9844-6.6544,4.3822.4869,8.4398.4869,10.8744-1.9477,2.4345-2.4346,2.9214-5.1937,1.9476-5.0314a21.88017,21.88017,0,0,0-3.4084,1.2984,12.42964,12.42964,0,0,0-1.9476-9.9005c-3.4084-4.8692-4.2199-1.6231-3.733-.8116.4869.8116,1.9476,4.5445,1.9476,4.5445s-5.356-4.0576-8.7644-3.7329c-3.4084.3246-14.2828,5.1937-16.8796,8.9267-2.59689,3.733-2.7592,9.5759-2.11,12.822s2.5969,3.5707,2.5969,3.5707l4.38221,5.5184Z" transform="translate(-50.36418 -79.10903)"/><path class="cls-10" d="M233.98679,181.1787s.6131-5.1094,5.3137-6.7444,8.99251-1.635,14.9193-1.635,2.86121-5.7224.6131-6.1312" transform="translate(-50.36418 -79.10903)"/><path class="cls-10" d="M233.57809,174.23s1.0218-4.2919,9.80991-4.7006" transform="translate(-50.36418 -79.10903)"/><path class="cls-4" d="M242.28759,191.4645s-2.11-5.0314-5.5183-3.5707c-3.4084,1.4607.3246,8.2775,3.8953,8.1152,3.5706-.1623,4.0576-2.2723,4.0576-2.2723" transform="translate(-50.36418 -79.10903)"/><path class="cls-4" d="M242.80909,215.4618s0-10.0535,1.0583-11.9936c1.0583-1.9402,4.4094-3.5276,6.34961-4.5858,1.94009-1.0583,2.822,0,1.94009,1.5873a20.27234,20.27234,0,0,1-3.1748,3.704s9.348-4.4095,10.2299-3.1748c.8819,1.2346,1.0583,2.822,0,3.7039a19.61883,19.61883,0,0,0-2.6456,2.1165c-.5292.7055.5291,5.9968-.5292,7.7606-1.0582,1.7638-5.82039,3.7039-8.2897,5.2913s-20.107,20.9889-24.8692,23.2818c-4.7621,2.2929-7.5842,3.7039-10.05349.5291-2.46921-3.1748-1.94011-6.3495,1.23469-10.2298S242.80909,215.4618,242.80909,215.4618Z" transform="translate(-50.36418 -79.10903)"/><path class="cls-4" d="M225.36179,406.5087s-2.833,5.4771-4.7216,7.3657c-1.8886,1.8887-5.76919,5.6426-5.3914,6.5869.3777.9443,18.1656,0,18.1656,0s1.4862.6606,1.0128-3.7539c-.2215-2.0657-.3777-9.4432-.3777-9.4432Z" transform="translate(-50.36418 -79.10903)"/><path class="cls-4" d="M273.33319,244.6661s.18881-21.3416-.9444-23.9856" transform="translate(-50.36418 -79.10903)"/></g><g id="Chair"><path class="cls-8" d="M122.0616,415.4455a4.63185,4.63185,0,1,0-4.6319,4.6319A4.63187,4.63187,0,0,0,122.0616,415.4455Z" transform="translate(-50.36418 -79.10903)"/><circle class="cls-4" cx="67.06552" cy="336.33647" r="2.3159"/><path class="cls-8" d="M171.672,415.4455a4.63185,4.63185,0,1,0-4.6318,4.6319A4.63185,4.63185,0,0,0,171.672,415.4455Z" transform="translate(-50.36418 -79.10903)"/><path class="cls-4" d="M169.3561,415.4455a2.316,2.316,0,1,0-2.3159,2.3159A2.31588,2.31588,0,0,0,169.3561,415.4455Z" transform="translate(-50.36418 -79.10903)"/><circle class="cls-8" cx="132.88752" cy="336.33647" r="4.6319"/><circle class="cls-4" cx="132.88752" cy="336.33647" r="2.31595"/><path class="cls-8" d="M99.73522,263.55437H109.46a.0361.0361,0,0,1,.0361.0361v67.45a0,0,0,0,1,0,0h-9.797a0,0,0,0,1,0,0v-67.45A.0361.0361,0,0,1,99.73522,263.55437Z"/><rect class="cls-8" x="97.09032" y="295.62167" width="15.0146" height="35.4188"/><path class="cls-8" d="M81.99942,228.17157h12.5963a0,0,0,0,1,0,0v26.9492a.0361.0361,0,0,1-.0361.0361H82.03552a.0361.0361,0,0,1-.0361-.0361v-26.9492A0,0,0,0,1,81.99942,228.17157Z"/><path class="cls-9" d="M163.4644,307.2931H114.4207a8.59882,8.59882,0,0,1-8.5961-8.8113l1.1842-47.8829a8.59876,8.59876,0,0,1,8.5962-8.3861h40.4967a8.59862,8.59862,0,0,1,8.4988,7.2919l7.3626,47.8829A8.59863,8.59863,0,0,1,163.4644,307.2931Z" transform="translate(-50.36418 -79.10903)"/><line class="cls-7" x1="97.07482" y1="265.30387" x2="75.55642" y2="279.47457"/><path class="cls-8" d="M125.1063,356.4389l-3.6649,2.4704a2.401,2.401,0,0,0-.3376,3.7066l.2541.2487a2.40056,2.40056,0,0,0,3.2066.1368l3.368-2.7772a2.36483,2.36483,0,0,0,.194-3.4699h0A2.36464,2.36464,0,0,0,125.1063,356.4389Z" transform="translate(-50.36418 -79.10903)"/><path class="cls-9" d="M64.38152,252.35777h80.4323a7.3694,7.3694,0,0,1,7.3694,7.3694v.6565a7.3695,7.3695,0,0,1-7.3695,7.3695H64.38141a7.36939,7.36939,0,0,1-7.36939-7.36939v-.65651A7.3695,7.3695,0,0,1,64.38152,252.35777Z"/><path class="cls-9" d="M202.49229,338.2303a7.91418,7.91418,0,0,0-7.96529-6.7635H153.1852a7.9143,7.9143,0,0,0-7.9654,6.7635,7.70025,7.70025,0,0,0,7.6426,8.6319h41.9874A7.70012,7.70012,0,0,0,202.49229,338.2303Z" transform="translate(-50.36418 -79.10903)"/><path class="cls-8" d="M66.40362,329.646h68.6076a3.9952,3.9952,0,0,1,3.9952,3.9952v.1985a0,0,0,0,1,0,0h-76.598a0,0,0,0,1,0,0v-.1985A3.9952,3.9952,0,0,1,66.40362,329.646Z"/><path class="cls-8" d="M100.43922,329.646h20.9337a3.9952,3.9952,0,0,1,3.9952,3.9952v.1985a0,0,0,0,1,0,0h-24.9289a0,0,0,0,1,0,0V329.646A0,0,0,0,1,100.43922,329.646Z"/></g><g id="Table"><rect class="cls-4" x="98.86712" y="218.74817" width="63.4817" height="2.5615"/><rect class="cls-4" x="116.76632" y="218.74817" width="63.4817" height="2.5615"/><rect class="cls-4" x="120.23522" y="173.78127" width="52.9359" height="40.4133"/><rect class="cls-8" x="122.42522" y="173.78127" width="52.9359" height="40.4133"/><rect class="cls-4" x="145.48152" y="195.41097" width="13.661" height="25.8986"/><path class="cls-3" d="M124.3214,298.3412a1.402,1.402,0,0,0,1.4013-1.3721l.3132-14.7214,6.9663-18.1698,16.6868,6.5003a1.40241,1.40241,0,0,0,1.0179-2.6136l-18.0005-7.0115a1.40208,1.40208,0,0,0-1.8176.8047l-7.5587,19.714a1.39255,1.39255,0,0,0-.0931.4724l-.3187,14.9647a1.403,1.403,0,0,0,1.3721,1.4323Z" transform="translate(-50.36418 -79.10903)"/><rect class="cls-8" x="115.1338" y="294.2846" width="18.3736" height="5.3079" transform="translate(198.27702 514.76807) rotate(180)"/><path class="cls-3" d="M128.9311,262.2597a3.26635,3.26635,0,1,1,3.2664,3.2664A3.26644,3.26644,0,0,1,128.9311,262.2597Z" transform="translate(-50.36418 -79.10903)"/><path class="cls-3" d="M121.4998,282.7449a3.26645,3.26645,0,1,1,3.2665,3.2664A3.26646,3.26646,0,0,1,121.4998,282.7449Z" transform="translate(-50.36418 -79.10903)"/><polygon class="cls-3" points="100.906 187.117 113.227 186.353 105.522 203.272 98.01 193.475 100.906 187.117"/><path class="cls-4" d="M105.4156,315.1529l2.7453,103.635a2.53313,2.53313,0,0,0,2.5322,2.466h0a2.533,2.533,0,0,0,2.5329-2.4999l1.3542-103.6011Z" transform="translate(-50.36418 -79.10903)"/><path class="cls-4" d="M138.8972,315.1529l2.7453,103.635a2.533,2.533,0,0,0,2.5322,2.466h0a2.53312,2.53312,0,0,0,2.5329-2.4999l1.3542-103.6011Z" transform="translate(-50.36418 -79.10903)"/><path class="cls-4" d="M277.01089,315.1529l2.7453,103.635a2.533,2.533,0,0,0,2.5322,2.466h0a2.53312,2.53312,0,0,0,2.5329-2.4999l1.3542-103.6011Z" transform="translate(-50.36418 -79.10903)"/><path class="cls-4" d="M310.49239,315.1529l2.7453,103.635a2.53313,2.53313,0,0,0,2.5322,2.466h0a2.533,2.533,0,0,0,2.5329-2.4999l1.3543-103.6011Z" transform="translate(-50.36418 -79.10903)"/><rect class="cls-4" x="51.79372" y="224.72487" width="220.55679" height="12.4017"/><rect class="cls-4" x="51.79372" y="224.72487" width="46.1508" height="12.4017"/><rect class="cls-8" x="51.79372" y="224.72487" width="220.55679" height="6.2009"/><rect class="cls-4" x="49.23232" y="220.45577" width="225.67959" height="6.8305"/><rect class="cls-4" x="101.01012" y="220.45577" width="173.9018" height="6.8305"/></g><g id="Clock"><circle class="cls-7" cx="141.8799" cy="180.12008" r="27.12007" transform="translate(-128.95127 163.99877) rotate(-67.71734)"/><circle class="cls-7" cx="141.8799" cy="180.12008" r="22.4727" transform="translate(-77.20918 -54.24698) rotate(-9.15285)"/><polyline class="cls-7" points="77.181 101.011 91.516 101.011 91.516 121.693"/></g><g id="Floor"><line class="cls-7" x1="1.33572" y1="341.97567" x2="403.33571" y2="341.97567"/></g></svg>