<svg xmlns="http://www.w3.org/2000/svg" xmlns:xlink="http://www.w3.org/1999/xlink" viewBox="0 0 491.45507 600.86951"><defs><style>.cls-1{fill:none;}.cls-2{isolation:isolate;}.cls-3{fill:#cde4f9;}.cls-4{fill:#a4bfea;}.cls-5{fill:#ffa233;}.cls-6{fill:#19203f;}.cls-7{fill:#ff5f5f;}.cls-8{clip-path:url(#clip-path);}.cls-9{fill:#ffa96e;}.cls-10{fill:#f79654;}.cls-11{fill:#fff;}.cls-12{mix-blend-mode:soft-light;}.cls-13{fill:#4b72bf;}</style><clipPath id="clip-path" transform="translate(-9.51924 -30.58538)"><rect class="cls-1" width="500" height="500"/></clipPath></defs><g class="cls-2"><g id="OBJECTS"><path class="cls-3" d="M478.58086,276.81739c-14.11147,149.9358-106.52018,217.13629-231.08579,107.99517-37.40334-23.14142-82.54682-23.17557-124.32794-32.32188C-2.4508,333.59225,2.82194,176.32,69.52571,101.77351,206.01632-51.005,516.62029,58.19638,478.58086,276.81739Z" transform="translate(-9.51924 -30.58538)"/><path class="cls-4" d="M185.36862,166.353a44.50838,44.50838,0,0,0,14.24625,9.58448L194.05539,200.492l29.33233-21.10886h1.95448a44.35321,44.35321,0,0,0,0-88.7063h-8.65778a44.29748,44.29748,0,0,0-31.3158,75.67615Z" transform="translate(-9.51924 -30.58538)"/><path class="cls-5" d="M321.50477,152.261a44.50839,44.50839,0,0,1-14.24624,9.58448L312.818,186.4l-29.33233-21.10887h-1.95449a44.3532,44.3532,0,0,1,0-88.70629H290.189A44.29748,44.29748,0,0,1,321.50477,152.261Z" transform="translate(-9.51924 -30.58538)"/><path class="cls-6" d="M314.27,137.91l-.56-.39q-.36007.55507-.75,1.08a33.40027,33.40027,0,1,1-27.77-52.89c.22-.00995.44-.00995.66-.00995s.44,0,.66.00995A33.30891,33.30891,0,0,1,311.64,97.9c.28.34.55.68.81,1.03l.54-.42a.64417.64417,0,0,0,.13-.88.39154.39154,0,0,0-.08-.1,34.7226,34.7226,0,1,0,1.29,41.42,1.76775,1.76775,0,0,0,.16-.22A.64563.64563,0,0,0,314.27,137.91Z" transform="translate(-9.51924 -30.58538)"/><path class="cls-6" d="M314.49,138.73a.40505.40505,0,0,1-.05.09.69186.69186,0,0,1-.11.13.672.672,0,0,1-.43.16.62818.62818,0,0,1-.37-.12l-.57-.39-27.48-18.95a.85885.85885,0,0,1-.13995-.13.78071.78071,0,0,1-.11005-.2.52285.52285,0,0,1-.04-.21V85.04a.66.66,0,0,1,1.32,0v33.72l.45.31,26.75,18.45.56.39A.64563.64563,0,0,1,314.49,138.73Z" transform="translate(-9.51924 -30.58538)"/><path class="cls-6" d="M312.99,98.51l-.54.42-25.49,20.14-.7.56a.67751.67751,0,0,1-.41.14.62834.62834,0,0,1-.37-.12.85885.85885,0,0,1-.13995-.13.78071.78071,0,0,1-.11005-.2.64982.64982,0,0,1,.22-.73l1.06-.84L311.64,97.9l.53-.42a.66737.66737,0,0,1,.87.05l.06.06a.052.052,0,0,1,.02.04A.64417.64417,0,0,1,312.99,98.51Z" transform="translate(-9.51924 -30.58538)"/><path class="cls-6" d="M292.2845,114.68679a.65385.65385,0,0,1-.42656-.15675l-6.43192-5.47535a.65807.65807,0,0,1,.85314-1.00218l6.43191,5.47535a.65786.65786,0,0,1-.42657,1.15893Z" transform="translate(-9.51924 -30.58538)"/><path class="cls-6" d="M297.71167,110.4012a.65352.65352,0,0,1-.41886-.151L285.43373,100.443a.65754.65754,0,1,1,.83772-1.01374l11.85908,9.80719a.6573.6573,0,0,1-.41886,1.16471Z" transform="translate(-9.51924 -30.58538)"/><path class="cls-6" d="M303.92,105.4976a.65574.65574,0,0,1-.406-.14L285.44658,91.19475a.658.658,0,1,1,.812-1.03558L304.326,104.322a.65786.65786,0,0,1-.406,1.17563Z" transform="translate(-9.51924 -30.58538)"/><path class="cls-6" d="M310.31083,100.44946a.6614.6614,0,0,1-.40987-.14261L292.17915,86.22434a.65836.65836,0,0,1,.81973-1.03044l17.72181,14.0825a.65812.65812,0,0,1-.40986,1.17306Z" transform="translate(-9.51924 -30.58538)"/><path class="cls-7" d="M321.278,118.88339a28.1694,28.1694,0,0,1-4.973,16.02145,1.44262,1.44262,0,0,1-.13063.17967.54876.54876,0,0,1-.35113.13064.513.513,0,0,1-.30213-.098l-.46546-.31848-22.43987-15.47435a.70148.70148,0,0,1-.11428-.10616.63723.63723,0,0,1-.08986-.16328.53063.53063,0,0,1,.17967-.59614l.86558-.6859,20.52086-16.2093.43276-.343a.545.545,0,0,1,.71043.04082.31971.31971,0,0,1,.06534.08168A28.22877,28.22877,0,0,1,321.278,118.88339Z" transform="translate(-9.51924 -30.58538)"/><path class="cls-6" d="M319.96073,97.62706a.3916.3916,0,0,0-.08-.1l.06.06A.052.052,0,0,1,319.96073,97.62706Z" transform="translate(-9.51924 -30.58538)"/><path class="cls-6" d="M229.62922,139.19642H215.36491a.65745.65745,0,0,1-.65783-.65784V69.94476a.65745.65745,0,0,1,.65783-.65784h14.26431a.65746.65746,0,0,1,.65784.65784v68.59382A.65746.65746,0,0,1,229.62922,139.19642Zm-13.60647-1.31568h12.94863V70.6026H216.02275Z" transform="translate(-9.51924 -30.58538)"/><path class="cls-6" d="M208.121,138.97992H193.858a.58467.58467,0,0,1-.58461-.5846V84.18723a.58468.58468,0,0,1,.58461-.58461h14.263a.58467.58467,0,0,1,.5846.58461v54.20809A.58466.58466,0,0,1,208.121,138.97992Zm-13.67842-1.1692h13.09382V84.77183H194.44256Z" transform="translate(-9.51924 -30.58538)"/><path class="cls-6" d="M187.01875,139.1007H172.75444a.5286.5286,0,0,1-.52807-.52871V94.29507a.5286.5286,0,0,1,.52807-.52871h14.26431a.5286.5286,0,0,1,.52807.52871V138.572A.5286.5286,0,0,1,187.01875,139.1007Zm-13.73624-1.05743h13.20817V94.82379H173.28251Z" transform="translate(-9.51924 -30.58538)"/><path class="cls-7" d="M167.64542,86.987l-.91994-6.51415A103.14879,103.14879,0,0,0,220.658,55.1885l4.3993,4.89139A109.80013,109.80013,0,0,1,167.64542,86.987Z" transform="translate(-9.51924 -30.58538)"/><polygon class="cls-7" points="217.922 35.595 222.893 17.234 204.505 22.107 217.922 35.595"/><g class="cls-8"><ellipse class="cls-9" cx="257.73156" cy="320.98538" rx="24.07842" ry="20.23806"/><path class="cls-10" d="M270.1072,363.93124a4.7441,4.7441,0,0,1-3.88841,2.00017,4.38456,4.38456,0,0,1-1.61606-.304,4.74707,4.74707,0,0,1-3.02427,8.43273,4.58465,4.58465,0,0,1-1.87213-.4,4.74216,4.74216,0,0,1-6.81658,6.30453l-4.54442-3.21628a4.75163,4.75163,0,0,1-6.17649,7.16856l-41.13945-17.20143,1.61615-30.46649,41.10079-2.55886a20.66568,20.66568,0,0,1,10.32077,3.12018l7.75132,8.36735c2.08265,2.20377,3.58438,5.05648,2.17626,7.82468l-.35208.496,5.34448,3.79231A4.77848,4.77848,0,0,1,270.1072,363.93124Z" transform="translate(-9.51924 -30.58538)"/><path class="cls-9" d="M285.92157,352.60086s-19.829,7.3821-28.72885-7.24783c0,0,8.83891,14.54583-1.34108,16.96525s-11.27723-7.45579-12.19161-11.84477c-.37371-1.79384-.86962-4.30047-1.32541-6.63759a7.80532,7.80532,0,0,1,4.83266-8.76866l23.18314-9.022Z" transform="translate(-9.51924 -30.58538)"/><path class="cls-6" d="M252.926,363.34468c-7.56257.00129-8.8487-7.93775-8.86155-8.02383l-2.269-10.8158a8.85559,8.85559,0,0,1,1.08826-6.879,10.16831,10.16831,0,0,1,5.96809-3.90848.65051.65051,0,0,1,.77348.5165.6588.6588,0,0,1-.51651.77348c-.30836.063-7.54716,1.61376-6.02462,9.23415l2.27417,10.84663c.05782.361,1.34266,7.98529,9.1789,6.81608,2.33584-.35076,3.96631-1.26685,4.84771-2.72386,1.51868-2.51443.36875-5.89485.35719-5.92954l-3.15686-7.64738a.65749.65749,0,0,1,1.2039-.52807c.21328.45612,5.42974,11.13058,23.31344,8.11121a.658.658,0,1,1,.21842,1.29769c-11.66122,1.96452-18.309-1.80007-21.71767-5.01345l1.36707,3.31232c.06938.194,1.38249,4.01769-.45483,7.06919-1.09212,1.8142-3.03737,2.941-5.78307,3.35215A12.09345,12.09345,0,0,1,252.926,363.34468Z" transform="translate(-9.51924 -30.58538)"/><path class="cls-6" d="M264.6026,366.28568a.65573.65573,0,0,1-.37646-.1182l-3.631-2.53628a.658.658,0,1,1,.75292-1.07927l3.631,2.53628a.65787.65787,0,0,1-.37646,1.19747Z" transform="translate(-9.51924 -30.58538)"/><path class="cls-6" d="M259.70607,374.31851a.65707.65707,0,0,1-.44713-.17474l-2.3307-2.15725a.65826.65826,0,0,1,.89425-.9662l2.3307,2.15725a.65786.65786,0,0,1-.44712,1.14094Z" transform="translate(-9.51924 -30.58538)"/><path class="cls-6" d="M248.3455,377.406a.64591.64591,0,0,1-.3893-.12848l-1.5765-1.16021a.6571.6571,0,1,1,.77861-1.05871l1.5765,1.16021a.65771.65771,0,0,1-.38931,1.18719Z" transform="translate(-9.51924 -30.58538)"/><polygon class="cls-6" points="122.766 265.396 111.36 331.115 101.452 388.281 69.521 572.331 0.658 572.331 53.904 265.396 122.766 265.396"/><polygon class="cls-6" points="180.38 572.331 111.517 572.331 101.452 388.281 98.321 331.115 94.729 265.396 94.519 261.62 163.381 261.62 180.38 572.331"/><path class="cls-6" d="M121.04243,602.91948h68.861s35.00924-3.28212,35.00924,28.445H121.04243Z" transform="translate(-9.51924 -30.58538)"/><path class="cls-11" d="M111.27866,425.12331a.6124.6124,0,0,1-.10793-.009.65668.65668,0,0,1-.5422-.75549L121.86318,355.828a.65824.65824,0,0,1,.45355-.52164l26.69258-8.29108a.65794.65794,0,1,1,.39059,1.25657l-26.30455,8.17031-11.16913,68.13A.65706.65706,0,0,1,111.27866,425.12331Z" transform="translate(-9.51924 -30.58538)"/><path class="cls-11" d="M189.90323,603.57748H121.04217a.65784.65784,0,1,1,0-1.31568h68.86106a.65784.65784,0,1,1,0,1.31568Z" transform="translate(-9.51924 -30.58538)"/><path class="cls-6" d="M10.17705,602.91948h68.861s35.00925-3.28212,35.00925,28.445H10.17705Z" transform="translate(-9.51924 -30.58538)"/><path class="cls-11" d="M79.03814,603.57748H10.17707a.65784.65784,0,0,1,0-1.31568H79.03814a.65784.65784,0,0,1,0,1.31568Z" transform="translate(-9.51924 -30.58538)"/><path class="cls-10" d="M152.49445,117.90494v31.78673a24.55605,24.55605,0,0,1-10.86751,20.32723c-.23681.15787-.48679.32892-.73677.47362-.5.30258-1.013.60524-1.53932.88149q-.39472.19741-.78938.39476c-.5263.26307-1.07886.49989-1.63142.72361-.55265.21047-1.11838.40786-1.68411.59207a24.27218,24.27218,0,0,1-27.70816-10.1439,24.62171,24.62171,0,0,1-2.32878-4.5391c-.0526-.14471-.10519-.27633-.15787-.421-.0526-.14471-.10528-.28941-.15788-.421-.07893-.23681-.15787-.48679-.23681-.73677a23.45138,23.45138,0,0,1-.74994-3.01288c-.07894-.39468-.13154-.77628-.18422-1.171-.03943-.27624-.07894-.55256-.1052-.84205-.01317-.1052-.02633-.21047-.0395-.32892q-.03951-.55253-.07894-1.10512c0-.3816-.01317-.76312-.01317-1.13147v-15.854a7.01282,7.01282,0,0,1,.90782.63157,6.33382,6.33382,0,0,1,1.6446,1.98669,22.53035,22.53035,0,0,0,2.59192-1.98669,23.50011,23.50011,0,0,0,7.92033-16.10387Z" transform="translate(-9.51924 -30.58538)"/><path class="cls-10" d="M141.62155,170.00876v14.1041H103.45374V158.08873l1.59192-.1052c.05267.14471.10527.27624.15795.421a24.61609,24.61609,0,0,0,2.32869,4.5391,24.27219,24.27219,0,0,0,27.70817,10.1439c.56573-.171,1.13146-.3816,1.6841-.59207.55257-.22364,1.10513-.46045,1.63143-.72361q.39472-.19742.78937-.39468c.52631-.27632,1.03944-.56573,1.53941-.88156C141.13476,170.33768,141.38474,170.17981,141.62155,170.00876Z" transform="translate(-9.51924 -30.58538)"/><path class="cls-10" d="M105.05113,157.98042l-1.59192.10528a16.65139,16.65139,0,0,1-12.06482-10.95962,13.17944,13.17944,0,0,1,.15787-8.9861,10.05114,10.05114,0,0,1,3.19709-4.13117l.03951-.02633a.46115.46115,0,0,1,.10528-.06577,8.35411,8.35411,0,0,1,1.36827-.81572,6.42532,6.42532,0,0,1,.98676-.39468,7.94045,7.94045,0,0,1,.99993-.26315,7.73936,7.73936,0,0,1,5.23637.93408v15.854c0,.36835.01317.74987.01317,1.13147.02634.36834.0526.73677.09211,1.10512.01316.10528.01316.22372.02633.32892.02626.28949.06577.56581.1052.84205.05268.39469.10528.77629.18422,1.171a23.45138,23.45138,0,0,0,.74994,3.01288c.07894.25.15788.5.23681.73677C104.94585,157.691,104.99853,157.83571,105.05113,157.98042Z" transform="translate(-9.51924 -30.58538)"/><circle class="cls-6" cx="135.18738" cy="107.86266" r="3.57757"/><rect class="cls-6" x="141.20795" y="129.76716" width="6.99731" height="3.15668" rx="1.19964" transform="translate(279.89399 232.10563) rotate(-180)"/><circle class="cls-6" cx="115.52388" cy="107.86266" r="3.57757"/><rect class="cls-6" x="121.54446" y="129.76716" width="6.99731" height="3.15668" rx="1.19964" transform="translate(240.56699 232.10563) rotate(-180)"/><g class="cls-12"><circle class="cls-6" cx="104.5281" cy="118.38493" r="6.20814"/></g><path class="cls-6" d="M110.77838,166.99635s6.53176,7.22919,16.05825,7.17081,14.78306-4.14914,14.78306-4.14914v10.19884S123.85378,185.73922,110.77838,166.99635Z" transform="translate(-9.51924 -30.58538)"/><g class="cls-12"><polygon class="cls-6" points="127.945 106.284 125.467 121.426 132.329 121.426 127.945 106.284"/></g><path class="cls-6" d="M98.9822,136.85349c2.7332,1.31581,2.82813,4.5576,2.71322,7.18306a.52764.52764,0,0,1-.43941.45965,3.798,3.798,0,0,0-.24751,7.53748c.66181.11472.55087,1.159-.11722,1.04319a4.82905,4.82905,0,0,1-.22509-9.52451c.077-1.95378.05419-4.25782-1.69475-5.4924-1.81991-1.28461-3.6666.24686-3.95305,2.16548-.09941.66566-1.14337.55343-1.04319-.11722C94.32788,137.74711,96.55237,135.68373,98.9822,136.85349Z" transform="translate(-9.51924 -30.58538)"/><path class="cls-6" d="M133.90043,151.77848q3.831-.08648,7.66192-.17288l-4.532-15.2322c-.19216-.64528.84629-.80317,1.0364-.16417q2.35343,7.90944,4.70671,15.81887c.10915.36684-.28388.597-.57687.60365l-8.41354.18986C133.111,152.83679,133.233,151.79354,133.90043,151.77848Z" transform="translate(-9.51924 -30.58538)"/><path class="cls-11" d="M123.983,152.01151l13.00668,4.0343s-1.90519,7.57651-8.72391,5.37412C121.44507,159.2169,123.983,152.01151,123.983,152.01151Z" transform="translate(-9.51924 -30.58538)"/><path class="cls-6" d="M152.49445,117.90494H116.55014a23.50011,23.50011,0,0,1-7.92033,16.10387,22.53035,22.53035,0,0,1-2.59192,1.98669,6.33382,6.33382,0,0,0-1.6446-1.98669,7.01282,7.01282,0,0,0-.90782-.63157,7.73936,7.73936,0,0,0-5.23637-.93408,7.94045,7.94045,0,0,0-.99993.26315,6.42532,6.42532,0,0,0-.98676.39468,8.35411,8.35411,0,0,0-1.36827.81572.46115.46115,0,0,0-.10528.06577l-.03951.02633a59.324,59.324,0,0,1-4.19693-10.9201,15.34614,15.34614,0,0,1,14.854-19.24837h8.644l16.02494-11.59111v10.73589l17.31428-10.11756v9.99911L160.678,94.93318C166.28281,108.53724,152.49445,117.90494,152.49445,117.90494Z" transform="translate(-9.51924 -30.58538)"/><path class="cls-10" d="M275.03718,186.22973A6.60538,6.60538,0,0,0,271.498,188.069l-10.56719,10.55955-.07688.07692-15.97382,15.39938-2.43519,2.34986a20.598,20.598,0,0,0-4.49305,8.41634,20.29575,20.29575,0,0,0,2.96075,16.72727,20.65008,20.65008,0,0,0,10.42484,7.81235,20.29077,20.29077,0,0,0,9.97718.73213l46.66274-8.25938a5.22264,5.22264,0,0,0,4.2181-6.03253,5.158,5.158,0,0,0-2.14952-3.34858,4.895,4.895,0,0,0-1.20635-.62827l4.9234-.87145a5.193,5.193,0,0,0,2.06859-9.381,5.15811,5.15811,0,0,0-3.88294-.86947,5.193,5.193,0,0,0,2.06859-9.381,5.14991,5.14991,0,0,0-3.88139-.86069,5.22263,5.22263,0,0,0,4.21805-6.03252,5.234,5.234,0,0,0-6.03242-4.21806l-36.58774,6.47609,9.21517-9.19781a6.68191,6.68191,0,0,0-5.91169-11.30839Z" transform="translate(-9.51924 -30.58538)"/><path class="cls-6" d="M286.92837,214.99584q11.69514-2.47392,23.39016-4.94789c.61987-.13113.93055.81187.30626.944q-11.69514,2.47392-23.39029,4.9479C286.61476,216.071,286.30385,215.12788,286.92837,214.99584Z" transform="translate(-9.51924 -30.58538)"/><path class="cls-6" d="M288.87966,224.97151q11.52713-2.34342,23.05437-4.68681c.62009-.126.93131.81691.30612.944q-11.52713,2.34343-23.05436,4.68681C288.56581,226.0416,288.25459,225.09865,288.87966,224.97151Z" transform="translate(-9.51924 -30.58538)"/><path class="cls-6" d="M289.08408,234.44776q9.795-1.58543,19.5903-3.17075c.63048-.102.67727.89.05317.991l-19.5903,3.17074C288.50678,235.54081,288.46,234.54876,289.08408,234.44776Z" transform="translate(-9.51924 -30.58538)"/><path class="cls-5" d="M199.43649,296.37734a35.79172,35.79172,0,0,0,17.14342-7.16136l41.79269-31.3372L231.87,223.488,197.4667,249.13172l-24.07622-50.14633-39.55725,17.24306,28.391,59.92115a35.97036,35.97036,0,0,0,37.21226,20.22774Z" transform="translate(-9.51924 -30.58538)"/><polygon class="cls-11" points="223.443 194.32 228.867 190.294 253.959 220.431 248.036 226.233 223.443 194.32"/><polygon class="cls-11" points="91.868 261.62 93.94 153.524 132.108 153.524 140.686 261.62 91.868 261.62"/><polygon class="cls-11" points="199.761 301.967 205.551 304.825 196.004 340.078 188.536 336.743 199.761 301.967"/><path class="cls-5" d="M103.45921,184.10975,100.06474,361.7l-.02634.1973c-31.83941-3.4339-49.02215-11.4069-49.02215-11.4069l10.20967-51.864v-88.282a26.28828,26.28828,0,0,1,11.90686-21.98491c.01317,0,.02634-.01317.03951-.02634a25.08247,25.08247,0,0,1,5.24954-2.61819,26.02389,26.02389,0,0,1,9.0387-1.60517Z" transform="translate(-9.51924 -30.58538)"/><path class="cls-6" d="M155.69154,362.33144a.16667.16667,0,0,0,.07894-.01316v.01316Z" transform="translate(-9.51924 -30.58538)"/><path class="cls-5" d="M179.88687,359.43694q-12.6108,1.95376-24.11639,2.88134L141.62694,184.10975h8.11779a26.11057,26.11057,0,0,1,14.28824,4.22336c.01317.01317.02634.02634.03943.02634a26.24339,26.24339,0,0,1,11.90694,21.98491v88.282Z" transform="translate(-9.51924 -30.58538)"/><path class="cls-6" d="M191.77,269.12764a.65775.65775,0,0,1-.47346-.79873l4.1103-16.22922a.65787.65787,0,0,1,.79937-.476.62447.62447,0,0,1,.47594.79937l-4.11029,16.22922a.65788.65788,0,0,1-.79937.476Z" transform="translate(-9.51924 -30.58538)"/><path class="cls-6" d="M175.973,287.72278a.658.658,0,0,1-.654-.59617l-7.24779-77.02944a.65934.65934,0,0,1,.5936-.71694.66881.66881,0,0,1,.71694.5936l7.24779,77.02944a.65933.65933,0,0,1-.5936.71694C176.01537,287.7215,175.99352,287.72278,175.973,287.72278Z" transform="translate(-9.51924 -30.58538)"/><path class="cls-5" d="M210.182,330.72311,146.37094,310.0292a26.31774,26.31774,0,0,1-12.66729-13.03393l-30.37056-91.82521A21.0506,21.0506,0,1,0,63.36129,218.39l30.65119,92.67647.545,1.4641a68.37221,68.37221,0,0,0,33.59123,35.45221l68.829,21.66622Z" transform="translate(-9.51924 -30.58538)"/><path class="cls-6" d="M175.662,363.59651a.66176.66176,0,0,1-.19787-.03084l-41.53249-13.07326a58.15674,58.15674,0,0,1-16.67853-8.2294A69.06106,69.06106,0,0,1,93.95,312.78232l-.55377-1.48527-22.9781-69.47651a.65781.65781,0,0,1,1.24887-.41372L94.63738,310.8602l.53706,1.44031a67.70659,67.70659,0,0,0,22.84962,28.89608,56.85778,56.85778,0,0,0,16.30335,8.04182l41.53249,13.07326a.6577.6577,0,0,1-.19786,1.28484Z" transform="translate(-9.51924 -30.58538)"/><path class="cls-6" d="M155.31144,301.63376a.542.542,0,0,1-.07967-.00514.65733.65733,0,0,1-.57432-.73108l5.41946-44.89171-8.151-14.06194a.65421.65421,0,0,1-.04369-.5679l8.17416-21.11444-10.8145-30.98844a.65725.65725,0,1,1,1.24115-.433l10.89417,31.2165a.65755.65755,0,0,1-.00771.45419l-8.14718,21.04634,8.1035,13.97907a.65116.65116,0,0,1,.08351.40923l-5.44644,45.10884A.65735.65735,0,0,1,155.31144,301.63376Z" transform="translate(-9.51924 -30.58538)"/><path class="cls-6" d="M97.86747,197.19415a.65794.65794,0,0,1-.61673-.88654l3.8571-10.41042a.65776.65776,0,1,1,1.23345.4574L98.48419,196.765A.65693.65693,0,0,1,97.86747,197.19415Z" transform="translate(-9.51924 -30.58538)"/><polygon class="cls-7" points="115.073 153.473 108.47 160.746 110.736 168.4 119.889 168.4 122.046 160.936 115.073 153.473"/><polygon class="cls-7" points="119.817 253.223 130.13 238.563 119.889 168.4 110.736 168.4 106.969 214.431 119.817 253.223"/><path class="cls-6" d="M182.234,322.31713a.66276.66276,0,0,1-.203-.03212L146.1685,310.65463a27.05218,27.05218,0,0,1-13.06555-13.3919L102.25263,204.131a.65781.65781,0,0,1,1.24887-.41372l30.82719,93.07133a25.68105,25.68105,0,0,0,12.32805,12.64669L182.437,321.03357a.65783.65783,0,0,1-.203,1.28356Z" transform="translate(-9.51924 -30.58538)"/><path class="cls-6" d="M116.18031,193.98141a.65277.65277,0,0,1-.38545-.12527l-12.72121-9.2136a.65742.65742,0,1,1,.7709-1.06513l12.24454,8.868,8.01612-8.82943a.65632.65632,0,0,1,.48182-.21585h.00514a.65821.65821,0,0,1,.48053.20878l8.169,8.744,7.89792-8.68553a.65806.65806,0,0,1,.97391.88526l-8.37845,9.2136a.73228.73228,0,0,1-.487.21521.6582.6582,0,0,1-.48053-.20879l-8.169-8.74334-7.93132,8.73627A.65368.65368,0,0,1,116.18031,193.98141Z" transform="translate(-9.51924 -30.58538)"/><path class="cls-6" d="M129.40775,199.64306h-9.15192a.65784.65784,0,0,1,0-1.31568h9.15192a.65784.65784,0,0,1,0,1.31568Z" transform="translate(-9.51924 -30.58538)"/><path class="cls-6" d="M127.167,217.31348a.65658.65658,0,0,1-.65013-.56983l-2.39109-17.67042a.65733.65733,0,1,1,1.30283-.176l2.39109,17.67042a.65746.65746,0,0,1-.56276.74007A.7208.7208,0,0,1,127.167,217.31348Z" transform="translate(-9.51924 -30.58538)"/><polygon class="cls-6" points="368.689 265.487 380.096 331.205 390.003 388.371 421.934 572.421 490.797 572.421 437.551 265.487 368.689 265.487"/><polygon class="cls-6" points="311.075 572.421 379.938 572.421 390.003 388.371 393.134 331.205 396.726 265.487 396.936 261.711 328.074 261.711 311.075 572.421"/><path class="cls-13" d="M389.45112,603.00987h-68.861s-35.00925-3.28212-35.00925,28.445H389.45112Z" transform="translate(-9.51924 -30.58538)"/><path class="cls-11" d="M399.21488,425.2137a.61232.61232,0,0,0,.10793-.009.65667.65667,0,0,0,.5422-.75549l-11.23465-68.53086a.65825.65825,0,0,0-.45355-.52165l-26.69257-8.29108a.65794.65794,0,0,0-.3906,1.25658l26.30456,8.1703,11.16912,68.13A.65706.65706,0,0,0,399.21488,425.2137Z" transform="translate(-9.51924 -30.58538)"/><path class="cls-11" d="M320.59031,603.66787h68.86107a.65784.65784,0,0,0,0-1.31568H320.59031a.65784.65784,0,1,0,0,1.31568Z" transform="translate(-9.51924 -30.58538)"/><path class="cls-13" d="M500.31649,603.00987h-68.861s-35.00924-3.28212-35.00924,28.445H500.31649Z" transform="translate(-9.51924 -30.58538)"/><path class="cls-11" d="M431.4554,603.66787h68.86107a.65784.65784,0,0,0,0-1.31568H431.4554a.65784.65784,0,0,0,0,1.31568Z" transform="translate(-9.51924 -30.58538)"/><path class="cls-6" d="M384.88719,626.87381H289.427c-.84447,0-.69318,1.30781.14695,1.30781H385.0343C385.87844,628.18162,385.72715,626.87381,384.88719,626.87381Z" transform="translate(-9.51924 -30.58538)"/><path class="cls-6" d="M493.88027,627.05674H400.79738c-.84447,0-.69318,1.30772.14679,1.30772h93.08305C494.87152,628.36446,494.72023,627.05674,493.88027,627.05674Z" transform="translate(-9.51924 -30.58538)"/><path class="cls-11" d="M359.93769,187.30716a21.04965,21.04965,0,0,0-26.24545,14.05038L308.02882,286.15l-.10793.36489a20.58113,20.58113,0,0,1-5.1445,8.83328l-33.75782,28.42572,23.4173,39.93668L332.7376,324.9265a62.80885,62.80885,0,0,0,15.63652-26.74268l25.61331-84.63057A21.04919,21.04919,0,0,0,359.93769,187.30716Z" transform="translate(-9.51924 -30.58538)"/><path class="cls-6" d="M295.97585,356.98343a.65674.65674,0,0,1-.63471-.48567l-11.22951-41.51193a.65765.65765,0,1,1,1.26942-.34434l11.22951,41.51193a.65737.65737,0,0,1-.46254.80688A.66833.66833,0,0,1,295.97585,356.98343Z" transform="translate(-9.51924 -30.58538)"/><path class="cls-6" d="M352.17065,362.42183a.16656.16656,0,0,1-.07894-.01317v.01317Z" transform="translate(-9.51924 -30.58538)"/><path class="cls-11" d="M447.61474,209.80246v88.28192s-14.49863,7.552-36.839,11.03855c-.3946.06577-.80254.11837-1.21048.18421-3.6838.5394-7.57831.97359-11.64355,1.23674-4.3418.28942-8.894.38152-13.60422.23682-2.13139.06576-4.19694.0921-6.18362.0526-3.57861-.0526-6.92048-.25-10.03879-.56574h-.01317c-2.80224-.26315-5.40725-.64467-7.84138-1.07886-2.97345-.53939-5.69683-1.171-8.144-1.86824a70.4224,70.4224,0,0,1-8.07828-2.78923c-7.70985-3.21026-11.15692-6.44685-11.15692-6.44685V209.80246a26.24359,26.24359,0,0,1,11.90679-21.985c.01317,0,.02634-.01317.03951-.02634a26.11141,26.11141,0,0,1,14.2884-4.22328h62.284a26.02374,26.02374,0,0,1,9.03886,1.60509,25.08442,25.08442,0,0,1,5.24954,2.61819c.01317.01317.02634.02634.03951.02634a26.2683,26.2683,0,0,1,11.90678,21.985Z" transform="translate(-9.51924 -30.58538)"/><path class="cls-6" d="M337.11133,301.74554a.65162.65162,0,0,1-.38031-.12078l-4.25026-3.004a.65474.65474,0,0,1-.27495-.58845l7.0345-89.27655a.69047.69047,0,0,1,.70666-.60452.6572.6572,0,0,1,.60388.7073l-7.005,88.904,3.94575,2.78811a.65789.65789,0,0,1-.38031,1.1949Z" transform="translate(-9.51924 -30.58538)"/><path class="cls-9" d="M296.14959,323.99576l25.96671,17.06349a16.44668,16.44668,0,0,0,15.18587,1.50106l60.03894-24.29569-11.04218-27.28717s-25.15439-3.40317-37.117,23.02318l-6.7415,2.728-26.63232-10.23545a4.18787,4.18787,0,0,0-5.70881,4.37743c.0278.17137.05561.34279.10058.51552l-2.0488-.5906a4.19318,4.19318,0,0,0-4.919,2.1234,5.66465,5.66465,0,0,0-.11284,4.645l-1.55939-.40674a4.18051,4.18051,0,0,0-4.84575,2.20165A6.97887,6.97887,0,0,0,296.14959,323.99576Z" transform="translate(-9.51924 -30.58538)"/><path class="cls-6" d="M332.47819,334.712a7.49083,7.49083,0,0,1-3.86737-1.01631c-3.77615-2.21892-4.601-7.23108-4.63442-7.44308a.65763.65763,0,0,1,.34305-.68354l17.81432-9.423a.65807.65807,0,0,1,.61416,1.16406l-17.37748,9.19176c.284,1.20775,1.2797,4.52007,3.91363,6.06316,1.82833,1.07028,4.141,1.10625,6.86747.10151L355.73,324.26624a.65847.65847,0,1,1,.51908,1.21032l-19.61053,8.41185A12.11373,12.11373,0,0,1,332.47819,334.712Z" transform="translate(-9.51924 -30.58538)"/><path class="cls-6" d="M322.06584,326.04959a.63678.63678,0,0,1-.25055-.0501L302.869,318.17223a.65735.65735,0,0,1,.50108-1.21546l18.94627,7.82726a.65766.65766,0,0,1-.25054,1.26556Z" transform="translate(-9.51924 -30.58538)"/><path class="cls-6" d="M330.84387,320.86526a.654.654,0,0,1-.25825-.05268l-20.64354-8.82172a.658.658,0,0,1,.5165-1.21032l20.64355,8.82172a.65788.65788,0,0,1-.25826,1.263Z" transform="translate(-9.51924 -30.58538)"/><path class="cls-11" d="M439.26435,300.23708l-44.98669,26.32454-21.9263-37.475,44.98669-26.32453a7.65854,7.65854,0,0,0,3.20779-9.451l-15.25833-37.69492a21.71454,21.71454,0,0,1,11.93391-28.295c.36083-.14988.71678-.28753,1.07972-.408l16.397.86774-.01506.03644a21.59868,21.59868,0,0,1,10.81624,11.44505l15.25833,37.69492A51.03886,51.03886,0,0,1,439.26435,300.23708Z" transform="translate(-9.51924 -30.58538)"/><path class="cls-6" d="M380.75353,304.10451a.65927.65927,0,0,1-.5679-.32507l-8.40158-14.36067a.65811.65811,0,0,1,.23513-.90067l44.98615-26.32383a7.00618,7.00618,0,0,0,2.932-8.63606L404.67727,215.8629a.65827.65827,0,0,1,1.2206-.49338l15.25878,37.69467a8.329,8.329,0,0,1-3.48578,10.26588l-44.41953,25.99105,8.07009,13.79277a.65812.65812,0,0,1-.23512.90068A.66788.66788,0,0,1,380.75353,304.10451Z" transform="translate(-9.51924 -30.58538)"/><path class="cls-6" d="M398.31089,322.136a.65912.65912,0,0,1-.61673-.42914l-12.9846-35.01064a.65776.65776,0,0,1,1.23344-.4574l12.98461,35.01064a.658.658,0,0,1-.61672.88654Z" transform="translate(-9.51924 -30.58538)"/><path class="cls-6" d="M390.183,197.27317h-.00642a.65775.65775,0,0,1-.4831-.21906l-9.49113-10.59159L371.25984,197.04a.657.657,0,0,1-.50237.2332h-.00129a.65811.65811,0,0,1-.50237-.23448l-10.44448-12.41221a.658.658,0,1,1,1.00732-.84671l9.9421,11.8154,8.92708-10.55947a.65982.65982,0,0,1,.49338-.2332.686.686,0,0,1,.49852.21907l9.51553,10.61921,11.1036-11.88671a.65769.65769,0,0,1,.96106.89811l-11.59441,12.4122A.65816.65816,0,0,1,390.183,197.27317Z" transform="translate(-9.51924 -30.58538)"/><path class="cls-6" d="M377.24078,283.83357h-.02185a.65869.65869,0,0,1-.636-.67968l3.01166-92.76554a.65868.65868,0,0,1,.65784-.63664l.02185.00064a.658.658,0,0,1,.636.6784l-3.01167,92.76682A.65811.65811,0,0,1,377.24078,283.83357Z" transform="translate(-9.51924 -30.58538)"/><path class="cls-9" d="M401.75073,133.46193v15.8539c0,.36835-.01317.74995-.01317,1.13146q-.03951.55264-.07886,1.10521c-.01317.11836-.02634.22364-.03951.32892-.02634.28941-.06569.56573-.10519.842-.05268.39477-.10536.77628-.18422,1.171a23.44726,23.44726,0,0,1-.74986,3.01287c-.079.25-.158.5-.2369.73678-.05267.13162-.10519.27632-.15787.421-.05268.14478-.10536.27632-.158.421a24.61092,24.61092,0,0,1-2.32861,4.53911,24.27213,24.27213,0,0,1-27.70808,10.1439c-.56582-.18422-1.13163-.3816-1.68411-.59207-.55264-.22365-1.10528-.46054-1.63143-.72361q-.39484-.19743-.78953-.39477c-.52614-.27624-1.03944-.57882-1.53924-.88148-.25006-.1447-.50013-.31575-.73686-.47362a24.55615,24.55615,0,0,1-10.86751-20.32724V121.77871c.40794-.18421.80271-.36843,1.19732-.5789,2.78923-1.46046,6.35466-3.9076,9.473-1.85515a26.78159,26.78159,0,0,1,3.06531,2.78923,7.85069,7.85069,0,0,0,3.77615,2.02619c3.14433.671,6.289-.56573,9.15706-1.72353,2.88126-1.171,6.09159-2.46031,9.1834-1.28942.19739.07894.3816.15788.56582.25a23.5296,23.5296,0,0,0,7.44677,12.69632,22.52351,22.52351,0,0,0,2.59185,1.98669,6.33467,6.33467,0,0,1,1.6446-1.98669A7.00458,7.00458,0,0,1,401.75073,133.46193Z" transform="translate(-9.51924 -30.58538)"/><path class="cls-9" d="M363.60928,170.09915v14.1041H401.7771V158.17912l-1.59192-.1052c-.05268.1447-.10528.27624-.158.421a24.61641,24.61641,0,0,1-2.32869,4.5391,24.27218,24.27218,0,0,1-27.70816,10.1439c-.56573-.171-1.13147-.3816-1.68411-.59207-.55256-.22364-1.10512-.46046-1.63143-.72361q-.39472-.19741-.78937-.39468c-.5263-.27633-1.03944-.56574-1.5394-.88157C364.09608,170.42807,363.8461,170.27019,363.60928,170.09915Z" transform="translate(-9.51924 -30.58538)"/><path class="cls-9" d="M413.84173,147.2107a16.65088,16.65088,0,0,1-12.06466,10.95961l-1.59192-.10527c.05268-.14471.1052-.28941.15787-.421.07886-.23681.15788-.48679.2369-.73678a23.44726,23.44726,0,0,0,.74986-3.01287c.07886-.39469.13154-.7762.18422-1.171.0395-.27624.07885-.55256.10519-.842.01317-.10528.01317-.22373.02634-.32892.03935-.36843.06569-.73678.092-1.10521,0-.38151.01317-.76311.01317-1.13146v-15.8539a7.73954,7.73954,0,0,1,5.23637-.93416,7.94386,7.94386,0,0,1,.99993.26315,6.42666,6.42666,0,0,1,.98675.39469.33174.33174,0,0,1,.09219.0526,8.16,8.16,0,0,1,1.14463.671,1.1504,1.1504,0,0,1,.13154.09211.464.464,0,0,1,.10536.06576l.03935.02634a10.051,10.051,0,0,1,3.19716,4.13125A13.17873,13.17873,0,0,1,413.84173,147.2107Z" transform="translate(-9.51924 -30.58538)"/><circle class="cls-6" cx="351.00499" cy="107.95305" r="3.57757"/><rect class="cls-6" x="347.50633" y="99.27217" width="6.99731" height="3.15668" rx="1.19964"/><circle class="cls-6" cx="370.66849" cy="107.95305" r="3.57757"/><rect class="cls-6" x="367.16983" y="99.27217" width="6.99731" height="3.15668" rx="1.19964"/><g class="cls-12"><circle class="cls-6" cx="381.66426" cy="118.47532" r="6.20814"/></g><path class="cls-6" d="M394.45246,167.08674s-6.53176,7.22918-16.05826,7.17081-14.78305-4.14914-14.78305-4.14914v10.19884S381.37705,185.82961,394.45246,167.08674Z" transform="translate(-9.51924 -30.58538)"/><g class="cls-12"><polygon class="cls-6" points="358.248 106.375 360.725 121.517 353.863 121.517 358.248 106.375"/></g><path class="cls-6" d="M406.24863,136.94388c-2.7332,1.31581-2.82813,4.5576-2.71322,7.18306a.52764.52764,0,0,0,.43942.45965,3.798,3.798,0,0,1,.2475,7.53747c-.66181.11473-.55086,1.159.11722,1.04319a4.829,4.829,0,0,0,.22509-9.5245c-.077-1.95378-.05419-4.25782,1.69475-5.4924,1.81991-1.28462,3.6666.24686,3.95305,2.16548.09942.66565,1.14337.55343,1.04319-.11722C410.90295,137.8375,408.67847,135.77412,406.24863,136.94388Z" transform="translate(-9.51924 -30.58538)"/><path class="cls-6" d="M371.33041,151.86887q-3.831-.08647-7.66193-.17288l4.532-15.2322c.19216-.64528-.84629-.80317-1.0364-.16417q-2.35343,7.90944-4.70672,15.81887c-.10915.36684.28389.597.57687.60365l8.41355.18986C372.11982,152.92718,371.99786,151.88392,371.33041,151.86887Z" transform="translate(-9.51924 -30.58538)"/><path class="cls-11" d="M368.31118,157.30436l12.39024-5.65078s3.6235,6.92124-2.93025,9.81842C371.21551,164.37,368.31118,157.30436,368.31118,157.30436Z" transform="translate(-9.51924 -30.58538)"/><path class="cls-6" d="M410.2106,133.90922a8.16,8.16,0,0,0-1.14463-.671.33174.33174,0,0,0-.09219-.0526,6.42666,6.42666,0,0,0-.98675-.39469,7.94386,7.94386,0,0,0-.99993-.26315,7.73954,7.73954,0,0,0-5.23637.93416,7.00458,7.00458,0,0,0-.90774.6315,6.33467,6.33467,0,0,0-1.6446,1.98669,22.52351,22.52351,0,0,1-2.59185-1.98669,23.5296,23.5296,0,0,1-7.44677-12.69632c-.18422-.0921-.36843-.171-.56582-.25-3.09181-1.17089-6.30214.11845-9.1834,1.28942-2.86809,1.1578-6.01273,2.39454-9.15706,1.72353a7.85069,7.85069,0,0,1-3.77615-2.02619,26.78159,26.78159,0,0,0-3.06531-2.78923c-3.11831-2.05245-6.68374.39469-9.473,1.85515-.39461.21047-.78938.39469-1.19732.5789-2.26292.98676-4.72323,1.434-7.052.21047-2.13139-1.13146-3.64429-3.09181-5.40741-4.6838a9.082,9.082,0,0,0-2.89443-1.90775c-1.63143-.59207-3.3287-.11837-4.99964-.01317a6.94812,6.94812,0,0,1-6.32848-3.11815,7.68568,7.68568,0,0,1-1.0131-6.802,8.37569,8.37569,0,0,1,5.27588-4.92062,9.79731,9.79731,0,0,1,7.65733.7762c2.55234,1.24991,5.15735,2.92085,7.99942,1.46047,2.23659-1.15781,3.80217-3.2892,5.97307-4.56545,2.71021-1.60508,5.65732-1.14463,8.35452.26315,2.81557,1.47356,5.3549,3.9207,8.65726,4.18385,2.92076.22364,5.63114-1.32885,8.09129-2.69712,2.48681-1.38145,5.03914-2.82874,7.9204-3.11815a12.63967,12.63967,0,0,1,7.89407,1.88141,12.31231,12.31231,0,0,1,5.18369,13.45935,10.27168,10.27168,0,0,1,5.6443-.93408c4.85494.53939,8.10462,4.38115,8.98618,9.01236C413.57865,124.9758,412.03942,129.58067,410.2106,133.90922Z" transform="translate(-9.51924 -30.58538)"/></g></g></g></svg>